<svg width="497" height="454" viewBox="0 0 497 454" fill="none" xmlns="http://www.w3.org/2000/svg">
<g id="contact-animation">
<g id="freepik  Plants  inject 43">
<path id="Vector" d="M58.2106 442.472C57.4012 442.95 42.5409 447.555 37.037 439.603C31.5332 431.65 40.6793 419.251 35.5154 414.682C30.3515 410.112 15.8796 414.682 12.3993 405.081C8.9189 395.481 19.2305 391.337 13.4353 381.648C9.77685 375.538 -0.453811 372.172 0.0156343 366.487C0.69552 358.18 14.6817 355.859 26.8873 364.839C39.0929 373.819 44.791 366.451 48.6599 365.849C52.5287 365.247 60.8816 366.575 60.6226 381.453C60.3636 396.332 58.2106 442.472 58.2106 442.472Z" fill="#FFA500"/>
<path id="Vector_2" d="M59.1982 421.377C59.005 421.376 58.8183 421.301 58.6704 421.165C58.5225 421.029 58.4228 420.841 58.3888 420.633C54.1314 392.293 24.1355 369.391 8.53046 364.467C8.42722 364.437 8.33067 364.384 8.24662 364.312C8.16256 364.239 8.09273 364.149 8.04132 364.047C7.98991 363.944 7.95798 363.831 7.94746 363.715C7.93693 363.598 7.94803 363.481 7.98007 363.369C8.04018 363.144 8.17969 362.953 8.36791 362.841C8.55613 362.728 8.77764 362.701 8.98371 362.767C24.9287 367.815 55.6207 391.354 59.9914 420.349C60.0242 420.579 59.9729 420.814 59.8487 421.003C59.7245 421.192 59.5373 421.32 59.3276 421.359L59.1982 421.377Z" fill="white"/>
<path id="Vector_3" d="M23.8117 397.66C23.6337 397.662 23.46 397.6 23.3177 397.483C23.1753 397.366 23.0722 397.201 23.0243 397.013C22.9763 396.825 22.9863 396.626 23.0525 396.445C23.1188 396.264 23.2377 396.112 23.3908 396.013C23.8764 395.694 35.4345 388.308 46.7983 391.762C47.013 391.823 47.1967 391.975 47.309 392.184C47.4213 392.393 47.4531 392.643 47.3973 392.878C47.3415 393.113 47.2026 393.314 47.0114 393.436C46.8201 393.559 46.5921 393.594 46.3774 393.533C35.6611 390.274 24.3297 397.518 24.2164 397.589C24.0905 397.655 23.95 397.679 23.8117 397.66V397.66Z" fill="white"/>
<path id="Vector_4" d="M443.376 272.972C449.754 273.929 460.616 269.89 461.393 258.271C462.17 246.652 466.557 243.499 474.603 241.604C482.648 239.709 485.011 236.644 485.934 231.118C486.857 225.592 480.738 218.985 482.454 210.66C484.17 202.336 489.9 202.353 495.533 192.948C499.143 186.891 491.745 177.645 479.426 181.612C467.108 185.58 468.095 194.277 455.776 195.393C443.457 196.508 435.736 204.691 435.493 214.876C435.25 225.06 443.376 272.972 443.376 272.972Z" fill="#FF8A00"/>
<path id="Vector_5" opacity="0.2" d="M443.376 272.972C449.754 273.929 460.616 269.89 461.393 258.271C462.17 246.652 466.557 243.499 474.603 241.604C482.648 239.709 485.011 236.644 485.934 231.118C486.857 225.592 480.738 218.985 482.454 210.66C484.17 202.336 489.9 202.353 495.533 192.948C499.143 186.891 491.745 177.645 479.426 181.612C467.108 185.58 468.095 194.277 455.776 195.393C443.457 196.508 435.736 204.691 435.493 214.876C435.25 225.06 443.376 272.972 443.376 272.972Z" fill="#FFFF00"/>
<path id="Vector_6" d="M441.045 250.69H440.948C440.844 250.667 440.745 250.622 440.657 250.557C440.569 250.491 440.493 250.408 440.434 250.311C440.376 250.214 440.335 250.105 440.315 249.991C440.295 249.877 440.295 249.759 440.317 249.645C446.274 217.427 478.763 187.936 486.678 184.925C486.893 184.847 487.127 184.866 487.329 184.978C487.531 185.089 487.684 185.283 487.755 185.518C487.826 185.753 487.808 186.009 487.707 186.23C487.605 186.451 487.427 186.619 487.213 186.696C479.475 189.636 447.731 218.578 441.887 250.088C441.827 250.276 441.712 250.437 441.559 250.546C441.407 250.655 441.226 250.705 441.045 250.69V250.69Z" fill="white"/>
</g>
<g id="freepik  Envelopes  inject 43">
<path id="Vector_7" d="M50.1428 261.494C50.218 259.896 50.6388 258.34 51.3704 256.955C52.1021 255.569 53.1238 254.393 54.3516 253.524L269.503 117.6C270.807 116.875 272.249 116.497 273.712 116.497C275.175 116.497 276.617 116.875 277.921 117.6L282.664 120.593C283.886 121.468 284.902 122.646 285.631 124.03C286.359 125.415 286.779 126.968 286.856 128.564V309.016C286.777 310.611 286.356 312.163 285.627 313.547C284.899 314.932 283.884 316.11 282.664 316.986L67.4961 452.892C66.1926 453.609 64.7541 453.982 63.2954 453.982C61.8366 453.982 60.3981 453.609 59.0947 452.892L54.3516 449.899C53.1292 449.023 52.1116 447.846 51.3806 446.462C50.6497 445.077 50.2257 443.525 50.1428 441.928V261.494Z" fill="#B79350"/>
<path id="Vector_8" d="M50.1428 261.494C50.218 259.896 50.6388 258.34 51.3704 256.955C52.1021 255.569 53.1238 254.393 54.3516 253.524L269.503 117.6C270.807 116.875 272.249 116.497 273.712 116.497C275.175 116.497 276.617 116.875 277.921 117.6L282.664 120.593C283.886 121.468 284.902 122.646 285.631 124.03C286.359 125.415 286.779 126.968 286.856 128.564V309.016C286.777 310.611 286.356 312.163 285.627 313.547C284.899 314.932 283.884 316.11 282.664 316.986L67.4961 452.892C66.1926 453.609 64.7541 453.982 63.2954 453.982C61.8366 453.982 60.3981 453.609 59.0947 452.892L54.3516 449.899C53.1292 449.023 52.1116 447.846 51.3806 446.462C50.6497 445.077 50.2257 443.525 50.1428 441.928V261.494Z" fill="#FF4500"/>
<path id="Vector_9" d="M69.8757 268.686L51.3731 257.013C50.6153 258.385 50.1918 259.946 50.1428 261.548V441.946C50.2257 443.543 50.6497 445.095 51.3806 446.479C52.1116 447.864 53.1292 449.041 54.3516 449.917L59.0947 452.91C60.3981 453.627 61.8366 454 63.2954 454C64.7541 454 66.1926 453.627 67.4961 452.91L69.8757 451.405V268.686Z" fill="#FF4500"/>
<path id="Vector_10" d="M286.873 128.564V309.016C286.818 310.668 286.366 312.275 285.562 313.674C284.94 314.853 284.102 315.878 283.101 316.686L282.939 316.792L282.664 316.987L67.5125 452.893C67.1008 453.211 66.6223 453.41 66.1215 453.472C65.6206 453.534 65.1136 453.456 64.6473 453.247C64.192 452.926 63.8278 452.473 63.5961 451.937C63.3643 451.402 63.2743 450.806 63.3361 450.218V269.784C63.2995 269.138 63.4066 268.491 63.6483 267.901C63.89 267.31 64.259 266.792 64.7238 266.391C65.1885 265.991 65.7351 265.72 66.3167 265.601C66.8983 265.482 67.4975 265.52 68.0629 265.71L158.536 289.249L170.386 292.331C171.784 292.618 173.228 292.481 174.56 291.934C175.893 291.388 177.063 290.453 177.945 289.232L191.656 268.314L284.056 127.555C285.545 125.217 286.873 125.624 286.873 128.564Z" fill="#FF4500"/>
<path id="Vector_11" d="M282.664 316.986L282.939 316.792L283.101 316.685C284.102 315.878 284.94 314.853 285.561 313.674C286.347 312.299 286.794 310.725 286.857 309.105L191.64 268.366L255.404 334.22L282.664 316.986Z" fill="#263238"/>
<path id="Vector_12" d="M63.3036 450.236C63.2418 450.824 63.3318 451.42 63.5636 451.955C63.7953 452.491 64.1595 452.944 64.6148 453.265C65.0811 453.474 65.5881 453.552 66.089 453.49C66.5898 453.428 67.0683 453.229 67.4801 452.91V452.91L141.555 406.115L158.471 289.214L63.2712 447.207L63.3036 450.236Z" fill="#263238"/>
<path id="Vector_13" d="M285.545 313.674C284.924 314.853 284.086 315.878 283.085 316.685L282.923 316.792L67.5124 452.892C67.1007 453.21 66.6222 453.41 66.1214 453.472C65.6205 453.533 65.1135 453.456 64.6472 453.246L167.666 273.29C169.732 269.679 172.918 267.004 176.641 265.755C180.363 264.505 184.372 264.766 187.933 266.489L285.545 313.674Z" fill="#FF4500"/>
<path id="Vector_14" d="M63.3035 264.488L162.259 312.311C165.82 314.027 169.827 314.282 173.546 313.03C177.265 311.778 180.447 309.102 182.51 305.492L286.419 123.446L63.3035 264.488Z" fill="#263238"/>
<path id="Vector_15" d="M63.3035 264.488L162.939 305.226C166.385 306.637 170.167 306.722 173.663 305.466C177.159 304.211 180.159 301.69 182.17 298.318L286.419 123.446L63.3035 264.488Z" fill="#FF4500"/>
<path id="Vector_16" d="M207.958 404.733V224.281C208.108 220.857 209.085 217.538 210.79 214.663L313.405 58.3173C315.277 55.4609 317.884 53.2788 320.894 52.0486C323.903 50.8185 327.179 50.596 330.305 51.4095L426.8 76.5078C429.909 77.4133 432.909 78.7215 435.736 80.4044L440.479 83.3978C441.698 84.2755 442.712 85.4537 443.441 86.8379C444.169 88.2221 444.59 89.7737 444.671 91.3683V271.82C444.588 273.414 444.165 274.965 443.437 276.349C442.709 277.732 441.696 278.911 440.479 279.791L225.311 415.697C224.008 416.417 222.569 416.793 221.11 416.793C219.651 416.793 218.212 416.417 216.909 415.697L212.166 412.703C210.943 411.829 209.925 410.651 209.194 409.267C208.463 407.882 208.039 406.329 207.958 404.733V404.733Z" fill="#FFFF00"/>
<path id="Vector_17" opacity="0.3" d="M207.958 404.733V224.281C208.108 220.857 209.085 217.538 210.79 214.663L313.405 58.3173C315.277 55.4609 317.884 53.2788 320.894 52.0486C323.903 50.8185 327.179 50.596 330.305 51.4095L426.8 76.5078C429.909 77.4133 432.909 78.7215 435.736 80.4044L440.479 83.3978C441.698 84.2755 442.712 85.4537 443.441 86.8379C444.169 88.2221 444.59 89.7737 444.671 91.3683V271.82C444.588 273.414 444.165 274.965 443.437 276.349C442.709 277.732 441.696 278.911 440.479 279.791L225.311 415.697C224.008 416.417 222.569 416.793 221.11 416.793C219.651 416.793 218.212 416.417 216.909 415.697L212.166 412.703C210.943 411.829 209.925 410.651 209.194 409.267C208.463 407.882 208.039 406.329 207.958 404.733V404.733Z" fill="#FFFF00"/>
<path id="Vector_18" d="M227.674 137.066V367.325C227.674 370.247 229.568 371.452 231.883 369.982L433.89 242.454C435.116 241.582 436.137 240.406 436.868 239.02C437.599 237.635 438.021 236.081 438.099 234.483V4.22432C438.099 1.28409 436.221 0.0973734 433.89 1.56749L231.883 129.095C230.658 129.968 229.638 131.145 228.907 132.53C228.176 133.915 227.753 135.469 227.674 137.066V137.066Z" fill="white"/>
<path id="Vector_19" d="M230.005 371.523C229.483 371.527 228.969 371.38 228.516 371.098C227.962 370.694 227.519 370.132 227.234 369.474C226.949 368.816 226.832 368.085 226.897 367.36V137.101C226.974 135.346 227.433 133.637 228.235 132.115C229.038 130.593 230.161 129.303 231.511 128.352L433.518 0.823695C434.045 0.35375 434.69 0.0704866 435.368 0.011529C436.046 -0.0474286 436.725 0.12071 437.313 0.493618C437.902 0.866525 438.372 1.42654 438.663 2.09926C438.954 2.77198 439.051 3.52556 438.941 4.25987V234.519C438.865 236.272 438.407 237.979 437.604 239.499C436.802 241.018 435.678 242.305 434.327 243.251L232.32 370.779C231.622 371.247 230.823 371.504 230.005 371.523V371.523ZM435.768 1.72702C435.245 1.75974 434.738 1.93643 434.295 2.24068L232.288 129.857C231.188 130.656 230.272 131.722 229.612 132.973C228.952 134.224 228.566 135.625 228.484 137.066V367.325C228.386 367.74 228.416 368.179 228.568 368.574C228.72 368.969 228.986 369.299 229.325 369.514C229.664 369.728 230.058 369.816 230.447 369.763C230.835 369.71 231.198 369.519 231.478 369.22L433.485 241.692C434.586 240.894 435.502 239.828 436.162 238.577C436.823 237.326 437.208 235.925 437.289 234.483V4.22445C437.335 3.80906 437.283 3.38778 437.139 3.0004C436.994 2.61301 436.762 2.27231 436.464 2.01042C436.26 1.84873 436.019 1.75077 435.768 1.72702V1.72702Z" fill="#E0E0E0"/>
<path id="Vector_20" d="M223.32 228.673L208.751 219.463C208.279 221.019 208.017 222.642 207.974 224.281V404.733C208.055 406.329 208.479 407.883 209.21 409.267C209.941 410.652 210.959 411.829 212.183 412.703L216.91 415.697C218.211 416.422 219.65 416.799 221.11 416.799C222.57 416.799 224.01 416.422 225.311 415.697L227.334 414.439L223.32 228.673Z" fill="#FFA500"/>
<g id="Group" opacity="0.1">
<path id="Vector_21" opacity="0.1" d="M223.32 228.673L208.751 219.463C208.279 221.019 208.017 222.642 207.974 224.281V404.733C208.055 406.329 208.479 407.883 209.21 409.267C209.941 410.652 210.959 411.829 212.183 412.703L216.91 415.697C218.211 416.422 219.65 416.799 221.11 416.799C222.57 416.799 224.01 416.422 225.311 415.697L227.334 414.439L223.32 228.673Z" fill="#FF4500"/>
</g>
<path id="Vector_22" d="M444.687 91.3686V271.821C444.633 273.473 444.18 275.08 443.376 276.479C442.755 277.658 441.917 278.683 440.916 279.49L440.754 279.596L440.479 279.791L225.327 415.697C224.915 416.015 224.437 416.214 223.936 416.276C223.435 416.338 222.928 416.261 222.462 416.051C222.006 415.731 221.642 415.277 221.411 414.742C221.179 414.207 221.089 413.611 221.151 413.022V232.588C221.114 231.942 221.221 231.296 221.463 230.705C221.704 230.114 222.073 229.596 222.538 229.196C223.003 228.795 223.55 228.524 224.131 228.405C224.713 228.287 225.312 228.324 225.877 228.514L316.302 252.054L328.152 255.136C329.553 255.426 331 255.29 332.335 254.744C333.671 254.197 334.844 253.261 335.728 252.036L349.455 231.118L441.855 90.359C443.409 88.021 444.687 88.4284 444.687 91.3686Z" fill="url(#paint0_linear)"/>
<path id="Vector_23" opacity="0.3" d="M444.687 91.3686V271.821C444.633 273.473 444.18 275.08 443.376 276.479C442.755 277.658 441.917 278.683 440.916 279.49L440.754 279.596L440.479 279.791L225.327 415.697C224.915 416.015 224.437 416.214 223.936 416.276C223.435 416.338 222.928 416.261 222.462 416.051C222.006 415.731 221.642 415.277 221.411 414.742C221.179 414.207 221.089 413.611 221.151 413.022V232.588C221.114 231.942 221.221 231.296 221.463 230.705C221.704 230.114 222.073 229.596 222.538 229.196C223.003 228.795 223.55 228.524 224.131 228.405C224.713 228.287 225.312 228.324 225.877 228.514L316.302 252.054L328.152 255.136C329.553 255.426 331 255.29 332.335 254.744C333.671 254.197 334.844 253.261 335.728 252.036L349.455 231.118L441.855 90.359C443.409 88.021 444.687 88.4284 444.687 91.3686Z" fill="white"/>
<path id="Vector_24" d="M440.478 279.791L440.754 279.596L440.915 279.49C441.917 278.682 442.754 277.657 443.376 276.479C444.162 275.097 444.609 273.517 444.671 271.891L349.455 231.153L413.218 297.025L440.478 279.791Z" fill="url(#paint1_linear)"/>
<path id="Vector_25" d="M221.118 413.04C221.056 413.628 221.147 414.224 221.378 414.759C221.61 415.295 221.974 415.748 222.43 416.069C222.896 416.278 223.403 416.356 223.904 416.294C224.405 416.232 224.883 416.032 225.295 415.714V415.714L299.37 368.919L316.286 252.018L221.086 410.011L221.118 413.04Z" fill="url(#paint2_linear)"/>
<path id="Vector_26" d="M443.376 276.479C442.754 277.657 441.917 278.683 440.916 279.49L440.754 279.596L225.327 415.697C224.915 416.015 224.437 416.214 223.936 416.276C223.435 416.338 222.928 416.261 222.462 416.051L325.481 236.095C327.546 232.488 330.729 229.816 334.448 228.567C338.167 227.318 342.172 227.576 345.731 229.293L443.376 276.479Z" fill="url(#paint3_linear)"/>
<path id="Vector_27" opacity="0.3" d="M443.376 276.479C442.754 277.657 441.917 278.683 440.916 279.49L440.754 279.596L225.327 415.697C224.915 416.015 224.437 416.214 223.936 416.276C223.435 416.338 222.928 416.261 222.462 416.051L325.481 236.095C327.546 232.488 330.729 229.816 334.448 228.567C338.167 227.318 342.172 227.576 345.731 229.293L443.376 276.479Z" fill="url(#paint4_linear)"/>
<path id="Vector_28" d="M316.626 190.096C314.737 190.416 312.806 190.229 310.998 189.55C309.19 188.871 307.561 187.721 306.249 186.2C303.789 183.206 302.559 178.583 302.559 172.367C302.563 165.352 303.937 158.419 306.589 152.033C309.312 145.461 313.071 139.466 317.694 134.321C322.665 128.681 328.332 123.828 334.529 119.903C340.605 116.077 345.791 113.958 350.086 113.544C354.408 113.119 357.662 114.341 359.896 117.175C362.13 120.009 363.23 124.349 363.23 130.158C363.324 135.92 362.076 141.613 359.604 146.702C357.426 151.31 354.105 155.153 350.021 157.789C348.612 158.885 346.884 159.377 345.165 159.171C344.553 159.038 343.99 158.716 343.542 158.241C343.094 157.767 342.78 157.161 342.639 156.496C341.292 159.286 339.579 161.846 337.557 164.095C335.51 166.405 333.178 168.39 330.628 169.993C326.225 172.721 322.712 173.536 320.122 172.597C317.532 171.658 316.302 168.789 316.302 164.006C316.339 157.997 318.031 152.139 321.158 147.197C324.562 141.72 329.085 137.184 334.368 133.949C336.574 132.511 338.971 131.459 341.474 130.831C343.334 130.28 345.295 130.28 347.156 130.831V149.482C347.156 150.988 347.399 151.909 347.868 152.263C348.338 152.617 349.115 152.44 350.215 151.749C352.266 150.29 353.784 148.09 354.505 145.533C355.6 142.078 356.12 138.437 356.043 134.781C356.043 130.129 355.115 126.746 353.259 124.632C352.267 123.571 351.057 122.786 349.73 122.342C348.403 121.898 346.999 121.809 345.634 122.082C341.682 122.742 337.897 124.286 334.513 126.616C327.356 130.96 321.187 137.014 316.464 144.328C312.099 151.192 309.781 159.364 309.827 167.726C309.827 172.815 310.782 176.529 312.692 178.867C313.682 180.037 314.922 180.921 316.3 181.44C317.679 181.96 319.153 182.098 320.592 181.843C324.62 181.218 328.482 179.667 331.923 177.291C334.298 175.788 336.546 174.057 338.641 172.119C340.591 170.357 342.366 168.374 343.935 166.203C344.097 165.974 344.288 165.771 344.501 165.6C344.647 165.512 344.792 165.6 344.922 165.813L346.703 169.355C346.768 169.496 346.817 169.645 346.848 169.798C346.792 170.193 346.615 170.555 346.346 170.826C344.391 173.399 342.223 175.77 339.871 177.91C337.395 180.183 334.747 182.222 331.956 184.003C327.305 187.217 322.077 189.295 316.626 190.096V190.096ZM337.67 156.797C339.211 154.808 340.11 152.318 340.228 149.713V138.908C337.917 139.122 335.692 139.962 333.752 141.352C330.664 143.253 328.034 145.93 326.079 149.164C324.246 152.13 323.259 155.625 323.247 159.206C323.247 162.2 323.926 163.989 325.302 164.52C326.678 165.051 328.799 164.52 331.697 162.625C334.043 161.14 336.095 159.159 337.735 156.797H337.67Z" fill="#00C9B7"/>
</g>
</g>
<defs>
<linearGradient id="paint0_linear" x1="332.909" y1="88.8489" x2="332.909" y2="416.297" gradientUnits="userSpaceOnUse">
<stop stop-color="#FFFF00"/>
<stop offset="1" stop-color="#FF8A00"/>
</linearGradient>
<linearGradient id="paint1_linear" x1="397.063" y1="231.153" x2="397.063" y2="297.025" gradientUnits="userSpaceOnUse">
<stop stop-color="#FFFF00"/>
<stop offset="1" stop-color="#FF8A00"/>
</linearGradient>
<linearGradient id="paint2_linear" x1="268.686" y1="252.018" x2="268.686" y2="416.314" gradientUnits="userSpaceOnUse">
<stop stop-color="#FFFF00"/>
<stop offset="1" stop-color="#FF8A00"/>
</linearGradient>
<linearGradient id="paint3_linear" x1="332.919" y1="227.787" x2="332.919" y2="416.297" gradientUnits="userSpaceOnUse">
<stop stop-color="#FFFF00"/>
<stop offset="1" stop-color="#FF8A00"/>
</linearGradient>
<linearGradient id="paint4_linear" x1="332.919" y1="227.787" x2="332.919" y2="416.297" gradientUnits="userSpaceOnUse">
<stop stop-color="#FFFF00"/>
<stop offset="1" stop-color="#FF8A00"/>
</linearGradient>
</defs>
</svg>
