<svg width="250" height="250" viewBox="0 0 250 250" fill="none" xmlns="http://www.w3.org/2000/svg">
<g id="portfolio animation">
<g id="big stars" filter="url(#filter0_d)">
<path id="Vector 6" d="M197.448 23.4479L201.5 23L197.448 22.5521L197 18.5L196.552 22.5521L192.5 23L196.552 23.4479L197 27.5L197.448 23.4479Z" fill="#FFFF00"/>
<path id="Vector 3" d="M99.2727 30.2725L104 29.75L99.2727 29.2275L98.7501 24.5L98.2273 29.2275L93.5 29.75L98.2273 30.2725L98.7501 35L99.2727 30.2725Z" fill="#FFFF00"/>
<path id="Vector 3_2" d="M142.697 15.6968L149 15.0001L142.697 14.3032L142 8L141.303 14.3032L135 15.0001L141.303 15.6968L142 22L142.697 15.6968Z" fill="#FFFF00"/>
<path id="Vector 2" d="M219.697 85.1968L226 84.5001L219.697 83.8032L219 77.5L218.303 83.8032L212 84.5001L218.303 85.1968L219 91.5L219.697 85.1968Z" fill="#FFFF00"/>
</g>
<g id="side table">
<path id="Vector" d="M60.8201 119.83V147.34L80.8701 135.765V108.255L60.8201 119.83Z" fill="#B79350"/>
<path id="Vector_2" opacity="0.4" d="M60.8201 119.83V147.34L80.8701 135.765V108.255L60.8201 119.83Z" fill="#B79350"/>
<path id="Vector_3" d="M59.235 118.955V146.46L60.82 147.34V119.83L59.235 118.955Z" fill="#B79350"/>
<path id="Vector_4" d="M79.285 130.53V158.04L99.34 146.46V118.955L79.285 130.53Z" fill="#B79350"/>
<path id="Vector_5" opacity="0.4" d="M98.84 119.821V146.171L79.785 157.174V130.819L98.84 119.821Z" fill="#B79350" stroke="black"/>
<path id="Vector_6" d="M77.7 129.65V157.16L79.285 158.04V130.53L77.7 129.65Z" fill="#B79350"/>
<path id="Vector_7" d="M79.285 132.72L59.235 121.145V118.955L79.285 130.53V132.72Z" fill="#B79350"/>
<path id="Vector_8" d="M79.285 158.04L59.235 146.46V130.66L79.285 142.24V158.04Z" fill="#B79350"/>
<path id="Vector_9" d="M79.285 130.53L59.235 118.955L79.285 107.375L99.34 118.955L79.285 130.53Z" fill="#B79350"/>
<path id="Vector_10" opacity="0.2" d="M79.285 129.953L60.2349 118.955L79.285 107.952L98.3399 118.955L79.285 129.953Z" fill="#B79350" stroke="black"/>
<path id="Vector_11" d="M77.7001 141.73L60.8201 131.985V122.055L77.7001 131.8V141.73Z" fill="#DAC7A4"/>
<path id="Vector_12" opacity="0.6" d="M77.7001 141.73L60.8201 131.985V122.055L77.7001 131.8V141.73Z" fill="#DAC7A4"/>
<path id="Vector_13" d="M68.2 132.3C68.8793 132.3 69.43 131.749 69.43 131.07C69.43 130.391 68.8793 129.84 68.2 129.84C67.5207 129.84 66.97 130.391 66.97 131.07C66.97 131.749 67.5207 132.3 68.2 132.3Z" fill="black"/>
<path id="Vector_14" d="M77.7001 154.095L60.8201 144.345V134.415L77.7001 144.16V154.095Z" fill="#DAC7A4"/>
<path id="Vector_15" opacity="0.6" d="M77.7001 154.095L60.8201 144.345V134.415L77.7001 144.16V154.095Z" fill="#DAC7A4"/>
<path id="Vector_16" d="M68.2 144.66C68.8793 144.66 69.43 144.109 69.43 143.43C69.43 142.751 68.8793 142.2 68.2 142.2C67.5207 142.2 66.97 142.751 66.97 143.43C66.97 144.109 67.5207 144.66 68.2 144.66Z" fill="black"/>
</g>
<g id="lamp">
<path id="Vector_17" opacity="0.2" d="M93.3981 111.478C100.867 104.009 100.867 91.8999 93.3981 84.4311C85.9293 76.9623 73.8201 76.9623 66.3513 84.4311C58.8825 91.8999 58.8825 104.009 66.3513 111.478C73.8201 118.947 85.9293 118.947 93.3981 111.478Z" fill="#F5DEB3"/>
<path id="Vector_18" opacity="0.2" d="M79.8749 114.515C88.8468 114.515 96.1199 107.242 96.1199 98.27C96.1199 89.2982 88.8468 82.025 79.8749 82.025C70.903 82.025 63.6299 89.2982 63.6299 98.27C63.6299 107.242 70.903 114.515 79.8749 114.515Z" fill="#F5DEB3"/>
<path id="Vector_19" opacity="0.2" d="M79.8749 111.335C86.9993 111.335 92.7749 105.559 92.7749 98.435C92.7749 91.3105 86.9993 85.535 79.8749 85.535C72.7504 85.535 66.9749 91.3105 66.9749 98.435C66.9749 105.559 72.7504 111.335 79.8749 111.335Z" fill="#F5DEB3"/>
<path id="Vector_20" d="M84.5399 117.08C84.2545 116.581 83.8331 116.173 83.3249 115.905C82.2559 115.365 81.075 115.084 79.8774 115.084C78.6797 115.084 77.4988 115.365 76.4299 115.905C75.9203 116.173 75.4972 116.581 75.2099 117.08H74.9999V117.9C74.9999 118.62 75.4749 119.34 76.4299 119.9C77.4981 120.442 78.6793 120.725 79.8774 120.725C81.0755 120.725 82.2566 120.442 83.3249 119.9C84.2799 119.35 84.7549 118.63 84.7549 117.9V117.08H84.5399Z" fill="#263238"/>
<path id="Vector_21" d="M83.325 119.07C82.2567 119.612 81.0755 119.895 79.8775 119.895C78.6794 119.895 77.4982 119.612 76.43 119.07C74.525 117.97 74.525 116.185 76.43 115.07C77.4989 114.53 78.6798 114.249 79.8775 114.249C81.0751 114.249 82.256 114.53 83.325 115.07C85.23 116.185 85.23 117.97 83.325 119.07Z" fill="#37474F"/>
<path id="Vector_22" d="M78.8198 93.745H80.9348V116.05C80.9348 116.322 80.8268 116.583 80.6346 116.775C80.4424 116.967 80.1817 117.075 79.9098 117.075H79.8448C79.7102 117.075 79.5769 117.048 79.4526 116.997C79.3282 116.945 79.2152 116.87 79.12 116.775C79.0249 116.68 78.9494 116.567 78.8979 116.442C78.8463 116.318 78.8198 116.185 78.8198 116.05V93.745Z" fill="#263238"/>
<path id="Vector_23" d="M89.3299 102.59C89.2999 102.47 89.2599 102.355 89.2199 102.24L86.2199 92.74H73.5249L70.5249 102.24C70.4849 102.355 70.4449 102.47 70.4149 102.59C69.9999 104.25 70.9149 106 73.1149 107.28C76.8449 109.435 82.8899 109.435 86.6149 107.28C88.8449 106 89.7449 104.25 89.3299 102.59Z" fill="url(#paint0_linear)"/>
<path id="Vector_24" opacity="0.4" d="M89.3299 102.59C89.2999 102.47 89.2599 102.355 89.2199 102.24L86.2199 92.74H73.5249L70.5249 102.24C70.4849 102.355 70.4449 102.47 70.4149 102.59C69.9999 104.25 70.9149 106 73.1149 107.28C76.8449 109.435 82.8899 109.435 86.6149 107.28C88.8449 106 89.7449 104.25 89.3299 102.59Z" fill="url(#paint1_linear)"/>
<path id="Vector_25" d="M84.4149 95.885C81.9149 97.33 77.8449 97.33 75.3399 95.885C72.8349 94.44 72.8399 92.09 75.3399 90.645C77.8399 89.2 81.9099 89.195 84.4149 90.645C86.9199 92.095 86.9199 94.435 84.4149 95.885Z" fill="#FFA500"/>
<path id="Vector_26" d="M79.875 89.555V90.31C81.3259 90.2823 82.7598 90.6266 84.04 91.31C85.005 91.87 85.54 92.57 85.54 93.28C85.54 93.99 85.005 94.685 84.04 95.245C82.748 95.8925 81.3227 96.2297 79.8775 96.2297C78.4323 96.2297 77.007 95.8925 75.715 95.245C74.745 94.685 74.215 93.985 74.215 93.28C74.215 92.575 74.745 91.87 75.715 91.31C76.9937 90.6274 78.4257 90.2832 79.875 90.31V89.555ZM79.875 89.555C78.295 89.525 76.7337 89.9002 75.34 90.645C72.84 92.09 72.84 94.435 75.34 95.885C76.7462 96.5983 78.3007 96.97 79.8775 96.97C81.4542 96.97 83.0088 96.5983 84.415 95.885C86.915 94.435 86.915 92.09 84.415 90.645C83.0194 89.9002 81.4565 89.525 79.875 89.555Z" fill="#FFA500"/>
<path id="Vector_27" opacity="0.2" d="M79.875 89.555V90.31C81.3259 90.2823 82.7598 90.6266 84.04 91.31C85.005 91.87 85.54 92.57 85.54 93.28C85.54 93.99 85.005 94.685 84.04 95.245C82.748 95.8925 81.3227 96.2297 79.8775 96.2297C78.4323 96.2297 77.007 95.8925 75.715 95.245C74.745 94.685 74.215 93.985 74.215 93.28C74.215 92.575 74.745 91.87 75.715 91.31C76.9937 90.6274 78.4257 90.2832 79.875 90.31V89.555ZM79.875 89.555C78.295 89.525 76.7337 89.9002 75.34 90.645C72.84 92.09 72.84 94.435 75.34 95.885C76.7462 96.5983 78.3007 96.97 79.8775 96.97C81.4542 96.97 83.0088 96.5983 84.415 95.885C86.915 94.435 86.915 92.09 84.415 90.645C83.0194 89.9002 81.4565 89.525 79.875 89.555Z" fill="white"/>
</g>
<g id="character">
<path id="Vector_28" d="M188.37 133.1C188.37 155.175 170.19 181.36 135.935 180.15C135.605 180.15 135.265 180.15 134.935 180.11C134.225 180.075 133.51 180.03 132.79 179.97C96.5 177 90.5 154.695 90.5 144.59C90.5 134.485 98.385 125.14 103.285 121.155C108.185 117.17 114.315 112.58 118.91 101.71C123.085 91.825 131.185 85.04 144.645 83.885C145.038 83.8483 145.438 83.8183 145.845 83.795C146.815 83.74 147.845 83.71 148.845 83.71C148.855 83.71 188.37 82.56 188.37 133.1Z" fill="#F5DEB3"/>
<path id="Vector_29" opacity="0.6" d="M188.37 133.1C188.37 155.175 170.19 181.36 135.935 180.15C135.605 180.15 135.265 180.15 134.935 180.11C134.225 180.075 133.51 180.03 132.79 179.97C96.5 177 90.5 154.695 90.5 144.59C90.5 134.485 98.385 125.14 103.285 121.155C108.185 117.17 114.315 112.58 118.91 101.71C123.085 91.825 131.185 85.04 144.645 83.885C145.038 83.8483 145.438 83.8183 145.845 83.795C146.815 83.74 147.845 83.71 148.845 83.71C148.855 83.71 188.37 82.56 188.37 133.1Z" fill="#F5DEB3"/>
<path id="Vector_30" d="M179.955 133.1C179.955 154.235 164.72 179.14 135.955 180.15C135.625 180.15 135.285 180.15 134.955 180.11C163.035 178.52 177.89 153.97 177.89 133.11C177.89 91.365 153.255 84.89 144.68 83.895C143.89 83.8 143.235 83.755 142.75 83.735C143.12 83.735 143.49 83.735 143.87 83.735C144.538 83.7274 145.205 83.7558 145.87 83.82C153.445 84.445 179.955 89.8 179.955 133.1Z" fill="#FFA500"/>
<path id="Vector_31" opacity="0.4" d="M179.955 133.1C179.955 154.235 164.72 179.14 135.955 180.15C135.625 180.15 135.285 180.15 134.955 180.11C163.035 178.52 177.89 153.97 177.89 133.11C177.89 91.365 153.255 84.89 144.68 83.895C143.89 83.8 143.235 83.755 142.75 83.735C143.12 83.735 143.49 83.735 143.87 83.735C144.538 83.7274 145.205 83.7558 145.87 83.82C153.445 84.445 179.955 89.8 179.955 133.1Z" fill="#FFA500"/>
<path id="Vector_32" d="M132.153 71.4033C132.153 71.4033 130.287 72.1323 131.796 75.5317C133.304 78.9311 129.89 80.6269 129 79.2897C129 79.2897 129.055 81.4455 132.429 81.4455C135.803 81.4455 136.407 79.2819 136.407 79.2819C136.407 79.2819 137.623 80.3111 137.623 83.2115C137.623 86.1119 134.053 97 146.538 97C159.023 97 158.797 88.7706 158.797 88.7706C158.797 88.7706 162 88.8173 162 85.1022C162 85.1022 157.133 87.4412 157.133 82.2135C157.133 76.9858 158.244 70.3508 153.11 70.3508C153.11 70.3508 154.88 67.505 151.355 65.6727C147.831 63.8405 137.241 66.3316 137.241 66.3316C137.241 66.3316 134.063 64.8502 131.786 66.6006C129 68.7213 132.153 71.4033 132.153 71.4033Z" fill="#263238"/>
<path id="Vector_33" d="M109.205 166.31L99.1 179.74L101.9 181.955C101.9 181.955 105.945 181.105 107.4 175.76C108.236 172.659 108.839 169.501 109.205 166.31Z" fill="#FFA8A7"/>
<path id="Vector_34" d="M110.115 165.395C110.115 165.395 112.92 167.94 111.68 170.22C110.44 172.5 108.29 174.325 108.225 177.325C108.16 180.325 106.66 185.67 103.335 186.52C100.01 187.37 96.75 186.205 96.835 185.02C96.92 183.835 99.12 179.735 99.12 179.735C99.12 179.735 102.17 181.625 104.425 179.8C106.68 177.975 107.2 170.3 107.2 170.3L110.115 165.395Z" fill="#F5DEB3"/>
<path id="Vector_35" opacity="0.2" d="M110.115 165.395C110.115 165.395 112.92 167.94 111.68 170.22C110.44 172.5 108.29 174.325 108.225 177.325C108.16 180.325 106.66 185.67 103.335 186.52C100.01 187.37 96.75 186.205 96.835 185.02C96.92 183.835 99.12 179.735 99.12 179.735C99.12 179.735 102.17 181.625 104.425 179.8C106.68 177.975 107.2 170.3 107.2 170.3L110.115 165.395Z" fill="#F5DEB3"/>
<path id="Vector_36" d="M127.345 123.82C127.345 123.82 104.845 133.32 103.01 134.275C101.175 135.23 98.01 136.86 98.315 144.185C98.62 151.51 100.475 169.685 100.475 169.685L112.82 145.95L144.69 130.785L127.345 123.82Z" fill="#FFA500"/>
<path id="Vector_37" opacity="0.5" d="M127.345 123.82C127.345 123.82 104.845 133.32 103.01 134.275C101.175 135.23 98.01 136.86 98.315 144.185C98.62 151.51 100.475 169.685 100.475 169.685L112.82 145.95L144.69 130.785L127.345 123.82Z" fill="#FFA500"/>
<path id="Vector_38" d="M99.5699 160.29C100.05 165.5 100.5 169.7 100.5 169.7L112.845 145.965L135.565 135.155L130.4 131.115C123.14 134.755 112.59 140.05 109.44 141.665C105.44 143.72 104.19 149.53 100.735 157.605L99.5699 160.29Z" fill="white"/>
<path id="Vector_39" opacity="0.7" d="M99.5699 160.29C100.05 165.5 100.5 169.7 100.5 169.7L112.845 145.965L135.565 135.155L130.4 131.115C123.14 134.755 112.59 140.05 109.44 141.665C105.44 143.72 104.19 149.53 100.735 157.605L99.5699 160.29Z" fill="black"/>
<path id="Vector_40" d="M129.215 128.67L131.535 132.185L129.715 132.46L129.215 128.67Z" fill="#BA68C8"/>
<path id="Vector_41" opacity="0.7" d="M129.215 128.67L131.535 132.185L129.715 132.46L129.215 128.67Z" fill="black"/>
<path id="Vector_42" d="M99.235 185.025C99.235 185.025 99.555 185.565 99.555 188.28C99.555 190.995 98.495 191.54 97.125 192.025C95.755 192.51 91.795 195.4 90.695 196.67C89.595 197.94 85.195 199.265 80.845 198.48C76.495 197.695 75.57 194.85 77.665 193.005C79.76 191.16 85.725 187.81 85.725 187.81L99.235 185.025Z" fill="#F5DEB3"/>
<path id="Vector_43" d="M151.35 129.44L141.67 127.2C141.67 127.2 114.775 140.7 110.77 142.74C106.765 144.78 105.52 150.605 102.065 158.68C99.465 164.755 96.065 173.085 93.835 178.095C93.835 178.095 95.425 182.32 100.47 181.255C102.18 177.525 105.2 174.18 109.59 168.255C113.395 163.12 114.88 158.585 115.455 155.865C115.624 155.062 116.017 154.323 116.587 153.733C117.158 153.143 117.883 152.726 118.68 152.53C123.12 151.455 132.18 149.115 141.715 145.82C155.165 141.2 151.35 129.44 151.35 129.44Z" fill="#FFA500"/>
<path id="Vector_44" opacity="0.5" d="M151.35 129.44L141.67 127.2C141.67 127.2 114.775 140.7 110.77 142.74C106.765 144.78 105.52 150.605 102.065 158.68C99.465 164.755 96.065 173.085 93.835 178.095C93.835 178.095 95.425 182.32 100.47 181.255C102.18 177.525 105.2 174.18 109.59 168.255C113.395 163.12 114.88 158.585 115.455 155.865C115.624 155.062 116.017 154.323 116.587 153.733C117.158 153.143 117.883 152.726 118.68 152.53C123.12 151.455 132.18 149.115 141.715 145.82C155.165 141.2 151.35 129.44 151.35 129.44Z" fill="#FFA500"/>
<path id="Vector_45" d="M93.8349 178.095C93.0949 179.745 92.4849 181.03 92.0649 181.76C90.3799 184.69 85.4549 187.87 83.7299 189.37C82.0049 190.87 81.6249 191.44 83.2849 192.71C87.4749 195.925 91.1099 192.42 93.4599 190.17C95.0349 188.73 96.7617 187.466 98.6099 186.4C98.7425 186.321 98.8561 186.214 98.9425 186.086C99.0289 185.958 99.0861 185.812 99.1099 185.66C99.3678 184.139 99.8268 182.66 100.475 181.26C95.4249 182.32 93.8349 178.095 93.8349 178.095Z" fill="#FFA8A7"/>
<path id="Vector_46" d="M141.085 138.635L124.15 148.41L96 132.13L112.93 122.155L141.085 138.635Z" fill="#EBEBEB"/>
<path id="Vector_47" d="M125.975 135.85L119.62 132.185L123.605 129.885L129.955 133.555L125.975 135.85Z" fill="#E0E0E0"/>
<path id="Vector_48" d="M123.43 145.97L131.99 140.93L115.265 130.81L123.43 145.97Z" fill="#E0E0E0"/>
<path id="Vector_49" d="M123.93 115.765L117.16 118.94C115.129 119.451 113.126 120.068 111.16 120.79C111.16 120.79 106.45 122.715 106.235 123.98C106.02 125.245 109.77 128.285 113.065 126.805C113.931 126.347 114.857 126.011 115.815 125.805C116.7 125.71 119.315 125.305 121.23 123.48L126.705 121.98C126.705 121.98 129.545 116.55 123.93 115.765Z" fill="#FFA8A7"/>
<path id="Vector_50" d="M119.545 125.21C118.76 126.05 116.545 128.17 116.045 128.785C115.545 129.4 114.405 127.82 116.425 125.475C118.173 124.834 119.818 123.94 121.305 122.82C120.78 123.66 120.191 124.459 119.545 125.21Z" fill="#FFA8A7"/>
<path id="Vector_51" d="M137.79 92.215C136.234 91.9666 134.64 92.2785 133.292 93.0952C131.944 93.912 130.93 95.1805 130.43 96.675C129.713 98.8319 129.251 101.066 129.055 103.33C128.47 110.33 128.305 113.795 128.305 113.795L121.305 116.97C121.305 116.97 125.09 117.155 124.835 122.5L133.565 120.295L137.79 92.215Z" fill="#FFA8A7"/>
<path id="Vector_52" d="M128.305 113.795C129.091 114.036 129.804 114.473 130.375 115.065C130.375 115.065 129.53 113.46 128.345 112.965L128.305 113.795Z" fill="#F28F8F"/>
<path id="Vector_53" d="M148.845 95L153.765 97.095V111.5C152.225 115.192 151.39 119.14 151.305 123.14V130.275C151.305 130.275 141.25 133.86 133.455 129.985C129.68 128.105 127.345 123.825 127.345 123.825C127.345 123.825 131.5 121.38 131.5 118.395C131.419 116.061 131.141 113.738 130.67 111.45C129.758 110.547 129.067 109.445 128.651 108.231C128.235 107.017 128.104 105.723 128.27 104.45C128.825 99.69 137.77 92.21 137.77 92.21L141.105 92.665L148.845 95Z" fill="#FFA500" fill-opacity="0.93"/>
<path id="Vector_54" d="M148.845 94.985L141.125 92.67V83.33H148.845V94.985Z" fill="#FFA8A7"/>
<path id="Vector_55" d="M141.125 92.67C142.703 92.0853 144.146 91.1859 145.365 90.0264C146.585 88.8668 147.556 87.4715 148.22 85.925V83.33H141.125V92.67Z" fill="#F28F8F"/>
<path id="Vector_56" d="M139.33 70.675C139.33 70.675 132.265 71.085 133.14 83.175C133.545 88.755 134.85 91.645 139.14 91.435C144.01 91.195 150.925 87.85 150.47 78.295C150.015 68.74 139.33 70.675 139.33 70.675Z" fill="#FFA8A7"/>
<path id="Vector_57" d="M148.845 83.33C148.845 83.33 146.91 83.83 146.91 81.065C146.91 81.065 138.31 80.485 136.41 71.95C136.41 71.95 137.26 69.395 142.63 69.395C148 69.395 152.51 74.14 151.13 80.67L148.845 83.33Z" fill="#263238"/>
<path id="Vector_58" d="M138.315 80.735V84.885L135.885 84.14L138.315 80.735Z" fill="#F28F8F"/>
<path id="Vector_59" d="M141.97 81.18C141.97 81.3471 141.92 81.5105 141.827 81.6494C141.735 81.7884 141.603 81.8967 141.448 81.9607C141.294 82.0246 141.124 82.0414 140.96 82.0088C140.796 81.9761 140.646 81.8957 140.527 81.7775C140.409 81.6593 140.329 81.5087 140.296 81.3448C140.264 81.1809 140.28 81.011 140.344 80.8566C140.408 80.7022 140.516 80.5703 140.655 80.4774C140.794 80.3846 140.958 80.335 141.125 80.335C141.349 80.335 141.564 80.424 141.722 80.5825C141.881 80.741 141.97 80.9559 141.97 81.18Z" fill="#263238"/>
<path id="Vector_60" d="M136.41 80.59C136.41 80.7571 136.36 80.9205 136.268 81.0594C136.175 81.1984 136.043 81.3067 135.888 81.3707C135.734 81.4346 135.564 81.4514 135.4 81.4188C135.236 81.3861 135.086 81.3057 134.967 81.1875C134.849 81.0693 134.769 80.9188 134.736 80.7548C134.704 80.5909 134.72 80.421 134.784 80.2666C134.848 80.1122 134.957 79.9802 135.096 79.8874C135.234 79.7945 135.398 79.745 135.565 79.745C135.789 79.745 136.004 79.834 136.162 79.9925C136.321 80.151 136.41 80.3659 136.41 80.59Z" fill="#263238"/>
<path id="Vector_61" d="M134.535 78.83L136.19 77.83C136.19 77.83 135.555 77.17 134.92 77.57C134.735 77.7157 134.599 77.9145 134.53 78.1397C134.461 78.3649 134.463 78.6058 134.535 78.83Z" fill="#263238"/>
<path id="Vector_62" d="M138.525 86.26C139.489 86.3307 140.449 86.0754 141.25 85.535C141.25 85.535 141.435 86.965 140.25 87.24C139.065 87.515 138.525 86.26 138.525 86.26Z" fill="#F28F8F"/>
<path id="Vector_63" d="M148.16 83.645C148.133 82.9415 148.265 82.241 148.545 81.595C148.678 81.1927 148.927 80.8388 149.261 80.5773C149.594 80.3158 149.998 80.1585 150.42 80.125C152.59 80.065 152.885 82.155 152.855 82.895C152.775 84.85 151.195 86.955 148.255 87.035L148.16 83.645Z" fill="#FFA8A7"/>
<path id="Vector_64" d="M141.125 92.67L138.85 95.63C138.594 95.9629 138.414 96.3478 138.323 96.7576C138.231 97.1674 138.23 97.5923 138.321 98.0024C138.411 98.4126 138.589 98.7981 138.844 99.1319C139.099 99.4657 139.423 99.7398 139.795 99.935C140.805 100.464 141.967 100.625 143.082 100.392C144.198 100.158 145.197 99.5442 145.91 98.655L148.845 94.985L141.125 92.67Z" fill="#FFA8A7"/>
<path id="Vector_65" d="M141.085 128.265L134.63 131.765C133.641 131.691 132.649 131.691 131.66 131.765C130.52 131.905 127.49 132.455 126.71 132.49C125.93 132.525 126.675 133.99 128.71 133.86C128.71 133.86 124.08 135.98 123.915 137.25C123.75 138.52 127.63 141.41 130.86 139.79C131.707 139.299 132.617 138.928 133.565 138.685C134.445 138.555 137.065 138.03 138.88 136.14L144.29 134.415C144.29 134.415 146.72 128.82 141.085 128.265Z" fill="#FFA8A7"/>
<path id="Vector_66" d="M153.765 97.08C153.765 97.08 149.845 99.785 150.5 108.11C150.891 113.159 150.891 118.231 150.5 123.28L141.075 128.28C142.09 128.951 142.918 129.869 143.482 130.947C144.046 132.025 144.327 133.229 144.3 134.445C144.3 134.445 157.84 131.655 158.65 128.5C159.46 125.345 159.75 110.27 159.75 107.65C159.75 105.03 158.68 99.175 153.765 97.08Z" fill="#FFA8A7"/>
<path id="Vector_67" d="M150.5 123.28C151.536 123.257 152.565 123.446 153.525 123.835C152.664 123.155 151.643 122.705 150.56 122.53L150.5 123.28Z" fill="#F28F8F"/>
<path id="Vector_68" d="M92.075 113.5L95 132.745C94.9978 132.75 94.9966 132.755 94.9966 132.76C94.9966 132.765 94.9978 132.77 95 132.775L124.24 149.735C124.247 149.739 124.255 149.74 124.263 149.74C124.271 149.739 124.279 149.736 124.286 149.732C124.293 149.727 124.298 149.721 124.301 149.714C124.305 149.706 124.306 149.698 124.305 149.69L121.5 131C121.439 130.602 121.292 130.221 121.069 129.885C120.847 129.549 120.553 129.266 120.21 129.055L93.39 112.61C93.2477 112.519 93.0819 112.472 92.9131 112.474C92.7443 112.477 92.5799 112.528 92.4401 112.623C92.3003 112.718 92.1913 112.851 92.1264 113.007C92.0615 113.163 92.0436 113.334 92.075 113.5Z" fill="#FAFAFA"/>
<path id="Vector_69" d="M124.28 149.735L139.9 140.69C140.26 140.481 140.558 140.181 140.766 139.82C140.974 139.46 141.084 139.051 141.085 138.635L124.15 148.41L124.28 149.735Z" fill="#E0E0E0"/>
<path id="Vector_70" d="M109 132.045C109 133.42 108.03 133.98 106.84 133.29C106.212 132.881 105.69 132.329 105.316 131.68C104.941 131.031 104.725 130.303 104.685 129.555C104.685 128.175 105.65 127.62 106.84 128.31C107.468 128.719 107.991 129.27 108.366 129.919C108.742 130.568 108.959 131.296 109 132.045Z" fill="#E0E0E0"/>
<path id="Vector_71" opacity="0.2" d="M137.79 112.5C137.79 112.5 143.69 114.105 146.82 109.67C146.82 109.655 144.795 115.38 137.79 112.5Z" fill="black"/>
</g>
<g id="plant">
<path id="Vector_72" d="M182.525 169.9C182.525 169.9 174.175 161.745 178.93 148.085C181.595 140.425 190.43 134.805 195.43 134.275C195.43 134.275 192.705 137.42 191.505 140.9L185.17 145.11L191 143.285L189.76 148.285C189.76 148.285 184.35 151.56 183.55 152.285L189.38 150.76C189.38 150.76 188.94 164.83 182.525 169.9Z" fill="#008075"/>
<path id="Vector_73" opacity="0.4" d="M182.525 169.9C182.525 169.9 174.175 161.745 178.93 148.085C181.595 140.425 190.43 134.805 195.43 134.275C195.43 134.275 192.705 137.42 191.505 140.9L185.17 145.11L191 143.285L189.76 148.285C189.76 148.285 184.35 151.56 183.55 152.285L189.38 150.76C189.38 150.76 188.94 164.83 182.525 169.9Z" fill="#5CD4EE"/>
<path id="Vector_74" d="M182.525 169.9C182.525 169.9 178.205 152.835 184.6 142.9C184.6 142.88 177.1 151.665 182.525 169.9Z" fill="white"/>
<path id="Vector_75" d="M192.085 172.21L181.865 172.085H181.76L171.545 172.21C171.545 172.21 171.43 184.8 175.31 189.925C176.38 191.285 178.89 192.24 181.81 192.24C184.73 192.24 187.255 191.28 188.31 189.915C192.2 184.79 192.085 172.21 192.085 172.21Z" fill="url(#paint2_linear)"/>
<path id="Vector_76" d="M181.815 177.725C187.487 177.725 192.085 175.256 192.085 172.21C192.085 169.164 187.487 166.695 181.815 166.695C176.143 166.695 171.545 169.164 171.545 172.21C171.545 175.256 176.143 177.725 181.815 177.725Z" fill="#455A64"/>
<path id="Vector_77" d="M181.815 170.75C185.35 170.75 188.34 171.885 189.395 173.45C189.653 173.087 189.796 172.655 189.805 172.21C189.805 170.035 186.225 168.27 181.805 168.27C177.385 168.27 173.805 170.035 173.805 172.21C173.812 172.655 173.955 173.088 174.215 173.45C175.29 171.885 178.28 170.75 181.815 170.75Z" fill="#37474F"/>
<path id="Vector_78" d="M181.815 170.75C178.28 170.75 175.29 171.885 174.235 173.45C175.29 175.02 178.28 176.155 181.815 176.155C185.35 176.155 188.34 175.02 189.395 173.45C188.34 171.885 185.35 170.75 181.815 170.75Z" fill="#E0E0E0"/>
<path id="Vector_79" d="M181.94 174.135C181.94 174.135 178 174 174.585 168.725C173.185 166.555 172.51 165.415 172.51 165.415L178.01 165.005L171.835 163.46L168.93 159L174.06 158.62C174.06 158.62 170.24 157.28 167.51 157.26C167.51 157.26 162.775 148.905 161.395 147.71C164.973 147.932 168.47 148.869 171.68 150.464C174.89 152.06 177.748 154.282 180.085 157C187.865 166.19 183.095 174.37 181.94 174.135Z" fill="#00C9B7"/>
<path id="Vector_80" d="M181.94 174.135C181.94 174.135 184.415 159.22 168.615 150.255C168.615 150.255 185 158.13 181.94 174.135Z" fill="white"/>
<path id="Vector_81" opacity="0.5" d="M181.94 174.135C181.94 174.135 185.525 174.365 189.085 169.945C190.55 168.12 191.27 167.155 191.27 167.155L186.33 166.265L192.05 165.455L195.105 161.7L190.5 160.875C190.5 160.875 194.075 160.025 196.54 160.265C196.54 160.265 201.595 153.17 202.955 152.225C199.706 152.087 196.463 152.602 193.417 153.739C190.371 154.876 187.584 156.612 185.22 158.845C177.345 166.41 180.875 174.235 181.94 174.135Z" fill="#00C9B7"/>
<path id="Vector_82" opacity="0.4" d="M181.94 174.135C181.94 174.135 185.525 174.365 189.085 169.945C190.55 168.12 191.27 167.155 191.27 167.155L186.33 166.265L192.05 165.455L195.105 161.7L190.5 160.875C190.5 160.875 194.075 160.025 196.54 160.265C196.54 160.265 201.595 153.17 202.955 152.225C199.706 152.087 196.463 152.602 193.417 153.739C190.371 154.876 187.584 156.612 185.22 158.845C177.345 166.41 180.875 174.235 181.94 174.135Z" fill="#00C9B7"/>
<path id="Vector_83" opacity="0.4" d="M181.94 174.135C181.94 174.135 185.525 174.365 189.085 169.945C190.55 168.12 191.27 167.155 191.27 167.155L186.33 166.265L192.05 165.455L195.105 161.7L190.5 160.875C190.5 160.875 194.075 160.025 196.54 160.265C196.54 160.265 201.595 153.17 202.955 152.225C199.706 152.087 196.463 152.602 193.417 153.739C190.371 154.876 187.584 156.612 185.22 158.845C177.345 166.41 180.875 174.235 181.94 174.135Z" fill="#00C9B7"/>
<path id="Vector_84" opacity="0.2" d="M181.94 174.135C181.94 174.135 185.525 174.365 189.085 169.945C190.55 168.12 191.27 167.155 191.27 167.155L186.33 166.265L192.05 165.455L195.105 161.7L190.5 160.875C190.5 160.875 194.075 160.025 196.54 160.265C196.54 160.265 201.595 153.17 202.955 152.225C199.706 152.087 196.463 152.602 193.417 153.739C190.371 154.876 187.584 156.612 185.22 158.845C177.345 166.41 180.875 174.235 181.94 174.135Z" fill="black"/>
<path id="Vector_85" d="M181.94 174.135C181.94 174.135 181.11 160.445 196.21 153.84C196.21 153.84 180.675 159.405 181.94 174.135Z" fill="white"/>
</g>
<g id="moon">
<path id="Vector_86" d="M120.069 30.4116C120.516 34.0336 119.795 37.6962 118.015 40.8543C116.235 44.0124 113.491 46.497 110.191 47.9383C112.757 48.3839 115.387 48.218 117.87 47.4538C120.353 46.6896 122.622 45.3482 124.496 43.5363C126.369 41.7244 127.796 39.492 128.662 37.0167C129.529 34.5414 129.811 31.8916 129.486 29.278C129.161 26.6644 128.239 24.1591 126.792 21.9616C125.346 19.7641 123.414 17.9349 121.152 16.6195C118.89 15.3042 116.36 14.539 113.763 14.3849C111.165 14.2308 108.572 14.6919 106.19 15.7317C109.747 16.3499 113.02 18.1129 115.521 20.7582C118.022 23.4034 119.617 26.7894 120.069 30.4116Z" fill="#FFFF00"/>
</g>
<g id="small-stars">
<path id="Vector_87" d="M178.12 64.1817C178.12 64.4154 178.058 64.6438 177.941 64.8382C177.825 65.0325 177.659 65.1839 177.466 65.2734C177.272 65.3628 177.059 65.3862 176.853 65.3406C176.648 65.295 176.459 65.1825 176.31 65.0172C176.162 64.852 176.061 64.6414 176.02 64.4122C175.979 64.183 176 63.9454 176.081 63.7295C176.161 63.5135 176.297 63.329 176.471 63.1991C176.645 63.0693 176.85 63 177.06 63C177.341 63 177.611 63.1245 177.81 63.3461C178.008 63.5677 178.12 63.8683 178.12 64.1817Z" fill="#FFFF00"/>
<path id="Vector_88" d="M157.465 35.3943C157.465 35.628 157.403 35.8565 157.286 36.0508C157.17 36.2451 157.004 36.3966 156.811 36.486C156.617 36.5754 156.404 36.5989 156.198 36.5533C155.993 36.5077 155.804 36.3951 155.656 36.2299C155.507 36.0646 155.406 35.8541 155.365 35.6248C155.325 35.3956 155.346 35.158 155.426 34.9421C155.506 34.7262 155.642 34.5416 155.816 34.4118C155.991 34.2819 156.195 34.2126 156.405 34.2126C156.686 34.2126 156.956 34.3371 157.155 34.5587C157.353 34.7803 157.465 35.0809 157.465 35.3943Z" fill="#FFFF00"/>
<path id="Vector_89" d="M203.56 81.053C204.145 81.053 204.62 80.524 204.62 79.8714C204.62 79.2187 204.145 78.6897 203.56 78.6897C202.975 78.6897 202.5 79.2187 202.5 79.8714C202.5 80.524 202.975 81.053 203.56 81.053Z" fill="#FFFF00"/>
<path id="Vector_90" d="M200.53 63.1817C200.823 63.1817 201.06 62.9171 201.06 62.5908C201.06 62.2645 200.823 62 200.53 62C200.237 62 200 62.2645 200 62.5908C200 62.9171 200.237 63.1817 200.53 63.1817Z" fill="#FFFF00"/>
<path id="Vector_91" d="M165.3 51.9598C165.593 51.9598 165.83 51.6953 165.83 51.369C165.83 51.0427 165.593 50.7781 165.3 50.7781C165.007 50.7781 164.77 51.0427 164.77 51.369C164.77 51.6953 165.007 51.9598 165.3 51.9598Z" fill="#FFFF00"/>
<path id="Vector_92" d="M189.56 49.2955C189.56 49.4522 189.504 49.6025 189.405 49.7133C189.305 49.8241 189.171 49.8864 189.03 49.8864C188.889 49.8864 188.755 49.8241 188.655 49.7133C188.556 49.6025 188.5 49.4522 188.5 49.2955C188.5 49.1388 188.556 48.9886 188.655 48.8778C188.755 48.767 188.889 48.7047 189.03 48.7047C189.171 48.7047 189.305 48.767 189.405 48.8778C189.504 48.9886 189.56 49.1388 189.56 49.2955Z" fill="#FFFF00"/>
<path id="Vector_93" d="M144.37 51.9598C144.663 51.9598 144.9 51.6953 144.9 51.369C144.9 51.0427 144.663 50.7781 144.37 50.7781C144.077 50.7781 143.84 51.0427 143.84 51.369C143.84 51.6953 144.077 51.9598 144.37 51.9598Z" fill="#FFFF00"/>
<path id="Vector_94" d="M183.583 20.2275C183.599 19.9945 183.677 19.7721 183.807 19.5886C183.937 19.405 184.113 19.2685 184.312 19.1962C184.511 19.124 184.726 19.1192 184.927 19.1826C185.129 19.246 185.31 19.3747 185.446 19.5524C185.582 19.7301 185.668 19.9488 185.692 20.1809C185.717 20.413 185.679 20.648 185.584 20.8563C185.489 21.0645 185.341 21.2367 185.158 21.3509C184.975 21.4651 184.766 21.5163 184.557 21.498C184.277 21.4735 184.016 21.3258 183.834 21.0875C183.651 20.8493 183.561 20.5399 183.583 20.2275Z" fill="#FFFF00"/>
<path id="Vector_95" d="M215.428 55.4565C215.444 55.2236 215.522 55.0012 215.652 54.8177C215.782 54.6341 215.958 54.4976 216.157 54.4253C216.356 54.3531 216.571 54.3483 216.772 54.4117C216.974 54.4751 217.155 54.6038 217.291 54.7815C217.427 54.9592 217.513 55.1779 217.537 55.41C217.562 55.6421 217.524 55.8771 217.429 56.0854C217.334 56.2936 217.186 56.4658 217.003 56.58C216.82 56.6942 216.611 56.7454 216.402 56.7271C216.121 56.7026 215.861 56.5549 215.679 56.3166C215.496 56.0784 215.406 55.769 215.428 55.4565Z" fill="#FFFF00"/>
<path id="Vector_96" d="M153.723 4.64992C153.139 4.59881 152.629 5.0848 152.583 5.73541C152.537 6.38602 152.973 6.95487 153.557 7.00598C154.14 7.05708 154.651 6.57108 154.697 5.92048C154.742 5.26987 154.306 4.70102 153.723 4.64992Z" fill="#FFFF00"/>
<path id="Vector_97" d="M230.041 70.9179C230.052 70.7617 230.119 70.6168 230.226 70.515C230.332 70.4132 230.471 70.3629 230.611 70.3752C230.751 70.3875 230.881 70.4613 230.973 70.5804C231.064 70.6996 231.109 70.8543 231.098 71.0105C231.087 71.1667 231.021 71.3116 230.914 71.4134C230.807 71.5152 230.668 71.5655 230.528 71.5532C230.388 71.541 230.258 71.4671 230.167 71.348C230.076 71.2288 230.03 71.0742 230.041 70.9179Z" fill="#FFFF00"/>
<path id="Vector_98" d="M131.111 10.7349C130.82 10.7093 130.564 10.9523 130.542 11.2776C130.519 11.6029 130.737 11.8873 131.028 11.9129C131.32 11.9385 131.575 11.6955 131.598 11.3702C131.621 11.0449 131.403 10.7604 131.111 10.7349Z" fill="#FFFF00"/>
<path id="Vector_99" d="M164.611 4.04628C164.32 4.02072 164.064 4.26372 164.042 4.58902C164.019 4.91433 164.237 5.19875 164.528 5.2243C164.82 5.24985 165.075 5.00686 165.098 4.68156C165.121 4.35625 164.903 4.07183 164.611 4.04628Z" fill="#FFFF00"/>
<path id="Vector_100" d="M161.611 21.8826C161.32 21.8571 161.064 22.1001 161.042 22.4254C161.019 22.7507 161.237 23.0351 161.528 23.0606C161.82 23.0862 162.075 22.8432 162.098 22.5179C162.121 22.1926 161.903 21.9082 161.611 21.8826Z" fill="#FFFF00"/>
<path id="Vector_101" d="M201.508 42.1481C201.216 42.1226 200.961 42.3656 200.938 42.6909C200.915 43.0162 201.133 43.3006 201.425 43.3262C201.717 43.3517 201.972 43.1087 201.995 42.7834C202.018 42.4581 201.8 42.1737 201.508 42.1481Z" fill="#FFFF00"/>
<path id="Vector_102" d="M183.955 34.0138C183.966 33.8576 184.033 33.7126 184.139 33.6109C184.246 33.5091 184.385 33.4588 184.525 33.4711C184.665 33.4833 184.795 33.5571 184.887 33.6763C184.978 33.7954 185.023 33.9501 185.012 34.1063C185.001 34.2625 184.935 34.4075 184.828 34.5093C184.721 34.6111 184.582 34.6613 184.442 34.6491C184.302 34.6368 184.172 34.563 184.081 34.4438C183.989 34.3247 183.944 34.17 183.955 34.0138Z" fill="#FFFF00"/>
<path id="Vector_103" d="M218.456 32.5868C218.165 32.5612 217.91 32.8042 217.887 33.1295C217.864 33.4548 218.082 33.7392 218.373 33.7648C218.665 33.7904 218.92 33.5474 218.943 33.2221C218.966 32.8967 218.748 32.6123 218.456 32.5868Z" fill="#FFFF00"/>
</g>
</g>
<defs>
<filter id="filter0_d" x="89.5" y="8" width="140.5" height="95.5" filterUnits="userSpaceOnUse" color-interpolation-filters="sRGB">
<feFlood flood-opacity="0" result="BackgroundImageFix"/>
<feColorMatrix in="SourceAlpha" type="matrix" values="0 0 0 0 0 0 0 0 0 0 0 0 0 0 0 0 0 0 127 0"/>
<feOffset dy="8"/>
<feGaussianBlur stdDeviation="2"/>
<feColorMatrix type="matrix" values="0 0 0 0 0 0 0 0 0 0 0 0 0 0 0 0 0 0 0.25 0"/>
<feBlend mode="normal" in2="BackgroundImageFix" result="effect1_dropShadow"/>
<feBlend mode="normal" in="SourceGraphic" in2="effect1_dropShadow" result="shape"/>
</filter>
<linearGradient id="paint0_linear" x1="79.8729" y1="92.74" x2="79.8729" y2="108.896" gradientUnits="userSpaceOnUse">
<stop stop-color="#FFA500"/>
<stop offset="1" stop-color="#F5DEB3"/>
</linearGradient>
<linearGradient id="paint1_linear" x1="79.8729" y1="92.74" x2="79.8729" y2="108.896" gradientUnits="userSpaceOnUse">
<stop stop-color="#FFA500"/>
<stop offset="1" stop-color="#F5DEB3"/>
</linearGradient>
<linearGradient id="paint2_linear" x1="181.815" y1="172.085" x2="181.815" y2="192.24" gradientUnits="userSpaceOnUse">
<stop offset="0.407292" stop-color="#FFA500"/>
<stop offset="1" stop-color="#FFFF00"/>
</linearGradient>
</defs>
</svg>
