<svg width="500" height="500" viewBox="0 0 500 500" fill="none" xmlns="http://www.w3.org/2000/svg">
<g id="animation">
<g id="freepik  Background  inject 205">
<path id="Vector" d="M88.1672 127.731C68.4766 156.912 53.6212 189.396 45.2965 223.556C38.8424 250.072 8.80339 402.594 213.837 437.86C435.65 475.999 481.847 372.704 495.389 282.033C519.138 122.635 448.351 30.347 347.196 5.93694C302.203 -4.91843 254.279 -1.04401 212.644 18.8517C163.976 42.075 119.891 80.6098 88.1672 127.731Z" fill="black"/>
</g>
<g id="freepik  Shadows  inject 205">
<path id="Vector_2" opacity="0.2" d="M364.65 390.2C376.099 390.2 385.38 384.841 385.38 378.23C385.38 371.619 376.099 366.26 364.65 366.26C353.201 366.26 343.92 371.619 343.92 378.23C343.92 384.841 353.201 390.2 364.65 390.2Z" fill="black"/>
<path id="Vector_3" opacity="0.2" d="M185.88 408.81C212.042 408.81 233.25 396.565 233.25 381.46C233.25 366.355 212.042 354.11 185.88 354.11C159.718 354.11 138.51 366.355 138.51 381.46C138.51 396.565 159.718 408.81 185.88 408.81Z" fill="black"/>
<path id="Vector_4" opacity="0.2" d="M282.52 370.38C336.97 370.38 381.11 344.896 381.11 313.46C381.11 282.024 336.97 256.54 282.52 256.54C228.07 256.54 183.93 282.024 183.93 313.46C183.93 344.896 228.07 370.38 282.52 370.38Z" fill="black"/>
<path id="Vector_5" opacity="0.2" d="M162.31 324.79L107.26 293.01L162.31 261.23L217.36 293.01L162.31 324.79Z" fill="black"/>
</g>
<g id="freepik  side table  inject 205">
<path id="Vector_6" d="M121.64 239.66V294.68L161.74 271.53V216.51L121.64 239.66Z" fill="#BA68C8"/>
<path id="Vector_7" opacity="0.4" d="M121.64 239.66V294.68L161.74 271.53V216.51L121.64 239.66Z" fill="black"/>
<path id="Vector_8" d="M118.47 237.91V292.92L121.64 294.68V239.66L118.47 237.91Z" fill="#BA68C8"/>
<path id="Vector_9" d="M158.57 261.06V316.08L198.68 292.92V237.91L158.57 261.06Z" fill="#BA68C8"/>
<path id="Vector_10" opacity="0.4" d="M158.57 261.06V316.08L198.68 292.92V237.91L158.57 261.06Z" fill="black"/>
<path id="Vector_11" d="M155.4 259.3V314.32L158.57 316.08V261.06L155.4 259.3Z" fill="#BA68C8"/>
<path id="Vector_12" d="M158.57 265.44L118.47 242.29V237.91L158.57 261.06V265.44Z" fill="#BA68C8"/>
<path id="Vector_13" d="M158.57 316.08L118.47 292.92V261.32L158.57 284.48V316.08Z" fill="#BA68C8"/>
<path id="Vector_14" d="M158.57 261.06L118.47 237.91L158.57 214.75L198.68 237.91L158.57 261.06Z" fill="#BA68C8"/>
<path id="Vector_15" opacity="0.2" d="M158.57 261.06L118.47 237.91L158.57 214.75L198.68 237.91L158.57 261.06Z" fill="black"/>
<path id="Vector_16" d="M155.4 283.46L121.64 263.97V244.11L155.4 263.6V283.46Z" fill="#BA68C8"/>
<path id="Vector_17" opacity="0.6" d="M155.4 283.46L121.64 263.97V244.11L155.4 263.6V283.46Z" fill="white"/>
<path id="Vector_18" d="M136.4 264.6C137.759 264.6 138.86 263.499 138.86 262.14C138.86 260.781 137.759 259.68 136.4 259.68C135.041 259.68 133.94 260.781 133.94 262.14C133.94 263.499 135.041 264.6 136.4 264.6Z" fill="white"/>
<path id="Vector_19" d="M155.4 308.19L121.64 288.69V268.83L155.4 288.32V308.19Z" fill="#BA68C8"/>
<path id="Vector_20" opacity="0.6" d="M155.4 308.19L121.64 288.69V268.83L155.4 288.32V308.19Z" fill="white"/>
<path id="Vector_21" d="M136.4 289.32C137.759 289.32 138.86 288.219 138.86 286.86C138.86 285.501 137.759 284.4 136.4 284.4C135.041 284.4 133.94 285.501 133.94 286.86C133.94 288.219 135.041 289.32 136.4 289.32Z" fill="white"/>
</g>
<g id="freepik  Lamp  inject 205">
<path id="Vector_22" opacity="0.2" d="M186.797 222.956C201.734 208.018 201.734 183.8 186.797 168.862C171.859 153.925 147.64 153.925 132.703 168.862C117.765 183.8 117.765 208.018 132.703 222.956C147.64 237.893 171.859 237.893 186.797 222.956Z" fill="#2193B3"/>
<path id="Vector_23" opacity="0.2" d="M159.75 229.03C177.694 229.03 192.24 214.484 192.24 196.54C192.24 178.596 177.694 164.05 159.75 164.05C141.806 164.05 127.26 178.596 127.26 196.54C127.26 214.484 141.806 229.03 159.75 229.03Z" fill="#2193B3"/>
<path id="Vector_24" opacity="0.2" d="M159.75 222.67C173.999 222.67 185.55 211.119 185.55 196.87C185.55 182.621 173.999 171.07 159.75 171.07C145.501 171.07 133.95 182.621 133.95 196.87C133.95 211.119 145.501 222.67 159.75 222.67Z" fill="#2193B3"/>
<path id="Vector_25" d="M169.08 234.16C168.509 233.162 167.667 232.347 166.65 231.81C164.512 230.73 162.15 230.167 159.755 230.167C157.36 230.167 154.998 230.73 152.86 231.81C151.841 232.347 150.995 233.162 150.42 234.16H150V235.8C150 237.24 150.95 238.68 152.86 239.8C154.997 240.885 157.359 241.45 159.755 241.45C162.151 241.45 164.514 240.885 166.65 239.8C168.56 238.7 169.51 237.26 169.51 235.8V234.16H169.08Z" fill="#263238"/>
<path id="Vector_26" d="M166.65 238.14C164.514 239.225 162.151 239.79 159.755 239.79C157.359 239.79 154.997 239.225 152.86 238.14C149.05 235.94 149.05 232.37 152.86 230.14C154.998 229.06 157.36 228.497 159.755 228.497C162.15 228.497 164.512 229.06 166.65 230.14C170.46 232.37 170.46 235.94 166.65 238.14Z" fill="#37474F"/>
<path id="Vector_27" d="M157.64 187.49H161.87V232.1C161.87 232.644 161.654 233.165 161.27 233.55C160.885 233.934 160.364 234.15 159.82 234.15H159.69C159.421 234.15 159.154 234.097 158.906 233.994C158.657 233.891 158.431 233.74 158.241 233.55C158.05 233.359 157.899 233.133 157.796 232.884C157.693 232.636 157.64 232.369 157.64 232.1V187.49Z" fill="#263238"/>
<path id="Vector_28" d="M178.66 205.18C178.6 204.94 178.52 204.71 178.44 204.48L172.44 185.48H147.05L141.05 204.48C140.97 204.71 140.89 204.94 140.83 205.18C140 208.5 141.83 212 146.23 214.56C153.69 218.87 165.78 218.87 173.23 214.56C177.69 212 179.49 208.5 178.66 205.18Z" fill="#2193B3"/>
<path id="Vector_29" opacity="0.4" d="M178.66 205.18C178.6 204.94 178.52 204.71 178.44 204.48L172.44 185.48H147.05L141.05 204.48C140.97 204.71 140.89 204.94 140.83 205.18C140 208.5 141.83 212 146.23 214.56C153.69 218.87 165.78 218.87 173.23 214.56C177.69 212 179.49 208.5 178.66 205.18Z" fill="white"/>
<path id="Vector_30" d="M168.83 191.77C163.83 194.66 155.69 194.66 150.68 191.77C145.67 188.88 145.68 184.18 150.68 181.29C155.68 178.4 163.82 178.39 168.83 181.29C173.84 184.19 173.84 188.87 168.83 191.77Z" fill="#2193B3"/>
<path id="Vector_31" d="M159.75 179.11V180.62C162.652 180.565 165.52 181.253 168.08 182.62C170.01 183.74 171.08 185.14 171.08 186.56C171.08 187.98 170.01 189.37 168.08 190.49C165.496 191.785 162.645 192.459 159.755 192.459C156.865 192.459 154.014 191.785 151.43 190.49C149.49 189.37 148.43 187.97 148.43 186.56C148.43 185.15 149.49 183.74 151.43 182.62C153.987 181.255 156.852 180.566 159.75 180.62V179.11ZM159.75 179.11C156.59 179.05 153.468 179.801 150.68 181.29C145.68 184.18 145.68 188.87 150.68 191.77C153.492 193.197 156.602 193.94 159.755 193.94C162.909 193.94 166.018 193.197 168.83 191.77C173.83 188.87 173.83 184.18 168.83 181.29C166.039 179.801 162.913 179.05 159.75 179.11Z" fill="#2193B3"/>
<path id="Vector_32" opacity="0.2" d="M159.75 179.11V180.62C162.652 180.565 165.52 181.253 168.08 182.62C170.01 183.74 171.08 185.14 171.08 186.56C171.08 187.98 170.01 189.37 168.08 190.49C165.496 191.785 162.645 192.459 159.755 192.459C156.865 192.459 154.014 191.785 151.43 190.49C149.49 189.37 148.43 187.97 148.43 186.56C148.43 185.15 149.49 183.74 151.43 182.62C153.987 181.255 156.852 180.566 159.75 180.62V179.11ZM159.75 179.11C156.59 179.05 153.468 179.801 150.68 181.29C145.68 184.18 145.68 188.87 150.68 191.77C153.492 193.197 156.602 193.94 159.755 193.94C162.909 193.94 166.018 193.197 168.83 191.77C173.83 188.87 173.83 184.18 168.83 181.29C166.039 179.801 162.913 179.05 159.75 179.11Z" fill="white"/>
</g>
<g id="freepik  Character  inject 205">
<path id="Vector_33" d="M376.74 266.2C376.74 310.35 340.38 362.72 271.87 360.3C271.21 360.3 270.53 360.3 269.87 360.22C268.45 360.15 267.02 360.06 265.58 359.94C193 354 181 309.39 181 289.18C181 268.97 196.77 250.28 206.57 242.31C216.37 234.34 228.63 225.16 237.82 203.42C246.17 183.65 262.37 170.08 289.29 167.77C290.077 167.697 290.877 167.637 291.69 167.59C293.63 167.48 295.69 167.42 297.69 167.42C297.71 167.42 376.74 165.12 376.74 266.2Z" fill="white"/>
<path id="Vector_34" opacity="0.6" d="M376.74 266.2C376.74 310.35 340.38 362.72 271.87 360.3C271.21 360.3 270.53 360.3 269.87 360.22C268.45 360.15 267.02 360.06 265.58 359.94C193 354 181 309.39 181 289.18C181 268.97 196.77 250.28 206.57 242.31C216.37 234.34 228.63 225.16 237.82 203.42C246.17 183.65 262.37 170.08 289.29 167.77C290.077 167.697 290.877 167.637 291.69 167.59C293.63 167.48 295.69 167.42 297.69 167.42C297.71 167.42 376.74 165.12 376.74 266.2Z" fill="white"/>
<path id="Vector_35" opacity="0.4" d="M183 304.23C182.63 292.69 186.78 279.94 191.26 276.36C206.06 264.52 238.94 255.62 238.94 255.62C236.09 246.4 223.7 243.47 223.7 243.47C233.21 241.19 245.27 245.05 245.27 245.05L272.82 199.13C275.843 194.098 280.624 190.365 286.238 188.652C291.852 186.938 297.902 187.365 303.22 189.85C310.4 193.23 318.22 197.57 324.22 202.63C339.16 215.24 329.06 255.79 324.95 270.23C322.1 280.23 319.44 284.08 318.07 285.5C317.955 285.614 317.863 285.749 317.8 285.898C317.738 286.048 317.705 286.208 317.705 286.37C317.705 286.532 317.738 286.692 317.8 286.842C317.863 286.991 317.955 287.126 318.07 287.24C331.26 300.29 326.84 311.4 326.84 311.4C325.26 301.89 313.84 296.74 307.62 294.61C307.144 294.45 306.64 294.386 306.138 294.422C305.637 294.458 305.148 294.593 304.699 294.82C304.25 295.048 303.852 295.362 303.525 295.744C303.199 296.127 302.953 296.571 302.8 297.05C301.36 301.52 297.21 309.31 285.31 315.98C267.45 325.98 253.67 319.14 244.93 319.79C239.05 320.23 236.58 341.49 234.43 354.11C200.47 343.43 187.36 321.58 183 304.23Z" fill="white"/>
<path id="Vector_36" d="M359.91 266.2C359.91 308.47 329.44 358.28 271.91 360.3C271.25 360.3 270.57 360.3 269.91 360.22C326.07 357.04 355.78 307.94 355.78 266.22C355.78 182.73 306.51 169.78 289.36 167.79C287.78 167.6 286.47 167.51 285.5 167.47C286.24 167.47 286.98 167.47 287.74 167.47C289.075 167.455 290.411 167.512 291.74 167.64C306.89 168.89 359.91 179.6 359.91 266.2Z" fill="#BA68C8"/>
<path id="Vector_37" opacity="0.4" d="M359.91 266.2C359.91 308.47 329.44 358.28 271.91 360.3C271.25 360.3 270.57 360.3 269.91 360.22C326.07 357.04 355.78 307.94 355.78 266.22C355.78 182.73 306.51 169.78 289.36 167.79C287.78 167.6 286.47 167.51 285.5 167.47C286.24 167.47 286.98 167.47 287.74 167.47C289.075 167.455 290.411 167.512 291.74 167.64C306.89 168.89 359.91 179.6 359.91 266.2Z" fill="white"/>
<path id="Vector_38" d="M263.43 146.45C263.43 146.45 259.72 148.32 262.72 157.04C265.72 165.76 258.93 170.11 257.16 166.68C257.16 166.68 257.27 172.21 263.98 172.21C270.69 172.21 271.89 166.66 271.89 166.66C271.89 166.66 274.31 169.3 274.31 176.74C274.31 184.18 267.21 212.11 292.04 212.11C316.87 212.11 316.42 191 316.42 191C316.42 191 322.79 191.12 322.79 181.59C322.79 181.59 313.11 187.59 313.11 174.18C313.11 160.77 315.32 143.75 305.11 143.75C305.11 143.75 308.63 136.45 301.62 131.75C294.61 127.05 273.55 133.44 273.55 133.44C273.55 133.44 267.23 129.64 262.7 134.13C257.16 139.57 263.43 146.45 263.43 146.45Z" fill="#263238"/>
<path id="Vector_39" d="M218.41 332.62L198.2 359.48L203.8 363.91C203.8 363.91 211.89 362.21 214.8 351.52C216.472 345.319 217.679 339.001 218.41 332.62Z" fill="#FFA8A7"/>
<path id="Vector_40" d="M220.23 330.79C220.23 330.79 225.84 335.88 223.36 340.44C220.88 345 216.58 348.65 216.45 354.65C216.32 360.65 213.32 371.34 206.67 373.04C200.02 374.74 193.5 372.41 193.67 370.04C193.84 367.67 198.24 359.47 198.24 359.47C198.24 359.47 204.34 363.25 208.85 359.6C213.36 355.95 214.4 340.6 214.4 340.6L220.23 330.79Z" fill="#BA68C8"/>
<path id="Vector_41" opacity="0.2" d="M220.23 330.79C220.23 330.79 225.84 335.88 223.36 340.44C220.88 345 216.58 348.65 216.45 354.65C216.32 360.65 213.32 371.34 206.67 373.04C200.02 374.74 193.5 372.41 193.67 370.04C193.84 367.67 198.24 359.47 198.24 359.47C198.24 359.47 204.34 363.25 208.85 359.6C213.36 355.95 214.4 340.6 214.4 340.6L220.23 330.79Z" fill="black"/>
<path id="Vector_42" d="M254.69 247.64C254.69 247.64 209.69 266.64 206.02 268.55C202.35 270.46 196.02 273.72 196.63 288.37C197.24 303.02 200.95 339.37 200.95 339.37L225.64 291.9L289.38 261.57L254.69 247.64Z" fill="#BA68C8"/>
<path id="Vector_43" opacity="0.5" d="M254.69 247.64C254.69 247.64 209.69 266.64 206.02 268.55C202.35 270.46 196.02 273.72 196.63 288.37C197.24 303.02 200.95 339.37 200.95 339.37L225.64 291.9L289.38 261.57L254.69 247.64Z" fill="black"/>
<path id="Vector_44" d="M199.14 320.58C200.1 331 201 339.4 201 339.4L225.69 291.93L271.13 270.31L260.8 262.23C246.28 269.51 225.18 280.1 218.88 283.33C210.88 287.44 208.38 299.06 201.47 315.21L199.14 320.58Z" fill="#BA68C8"/>
<path id="Vector_45" opacity="0.7" d="M199.14 320.58C200.1 331 201 339.4 201 339.4L225.69 291.93L271.13 270.31L260.8 262.23C246.28 269.51 225.18 280.1 218.88 283.33C210.88 287.44 208.38 299.06 201.47 315.21L199.14 320.58Z" fill="black"/>
<path id="Vector_46" d="M258.43 257.34L263.07 264.37L259.43 264.92L258.43 257.34Z" fill="#BA68C8"/>
<path id="Vector_47" opacity="0.7" d="M258.43 257.34L263.07 264.37L259.43 264.92L258.43 257.34Z" fill="black"/>
<path id="Vector_48" d="M198.47 370.05C198.47 370.05 199.11 371.13 199.11 376.56C199.11 381.99 196.99 383.08 194.25 384.05C191.51 385.02 183.59 390.8 181.39 393.34C179.19 395.88 170.39 398.53 161.69 396.96C152.99 395.39 151.14 389.7 155.33 386.01C159.52 382.32 171.45 375.62 171.45 375.62L198.47 370.05Z" fill="#BA68C8"/>
<path id="Vector_49" d="M302.7 258.88L283.34 254.4C283.34 254.4 229.55 281.4 221.54 285.48C213.53 289.56 211.04 301.21 204.13 317.36C198.93 329.51 192.13 346.17 187.67 356.19C187.67 356.19 190.85 364.64 200.94 362.51C204.36 355.05 210.4 348.36 219.18 336.51C226.79 326.24 229.76 317.17 230.91 311.73C231.248 310.124 232.033 308.646 233.174 307.466C234.315 306.286 235.766 305.452 237.36 305.06C246.24 302.91 264.36 298.23 283.43 291.64C310.33 282.4 302.7 258.88 302.7 258.88Z" fill="#BA68C8"/>
<path id="Vector_50" opacity="0.5" d="M302.7 258.88L283.34 254.4C283.34 254.4 229.55 281.4 221.54 285.48C213.53 289.56 211.04 301.21 204.13 317.36C198.93 329.51 192.13 346.17 187.67 356.19C187.67 356.19 190.85 364.64 200.94 362.51C204.36 355.05 210.4 348.36 219.18 336.51C226.79 326.24 229.76 317.17 230.91 311.73C231.248 310.124 232.033 308.646 233.174 307.466C234.315 306.286 235.766 305.452 237.36 305.06C246.24 302.91 264.36 298.23 283.43 291.64C310.33 282.4 302.7 258.88 302.7 258.88Z" fill="black"/>
<path id="Vector_51" d="M187.67 356.19C186.19 359.49 184.97 362.06 184.13 363.52C180.76 369.38 170.91 375.74 167.46 378.74C164.01 381.74 163.25 382.88 166.57 385.42C174.95 391.85 182.22 384.84 186.92 380.34C190.07 377.461 193.524 374.933 197.22 372.8C197.485 372.642 197.712 372.427 197.885 372.172C198.058 371.916 198.172 371.625 198.22 371.32C198.736 368.279 199.654 365.319 200.95 362.52C190.85 364.64 187.67 356.19 187.67 356.19Z" fill="#FFA8A7"/>
<path id="Vector_52" d="M282.17 277.27L248.3 296.82L192 264.26L225.86 244.31L282.17 277.27Z" fill="#EBEBEB"/>
<path id="Vector_53" d="M251.95 271.7L239.24 264.37L247.21 259.77L259.91 267.11L251.95 271.7Z" fill="#E0E0E0"/>
<path id="Vector_54" d="M246.86 291.94L263.98 281.86L230.53 261.62L246.86 291.94Z" fill="#E0E0E0"/>
<path id="Vector_55" d="M247.86 231.53L234.32 237.88C230.258 238.902 226.252 240.137 222.32 241.58C222.32 241.58 212.9 245.43 212.47 247.96C212.04 250.49 219.54 256.57 226.13 253.61C227.863 252.694 229.714 252.021 231.63 251.61C233.4 251.42 238.63 250.61 242.46 246.96L253.41 243.96C253.41 243.96 259.09 233.1 247.86 231.53Z" fill="#FFA8A7"/>
<path id="Vector_56" d="M239.09 250.42C237.52 252.1 233.09 256.34 232.09 257.57C231.09 258.8 228.81 255.64 232.85 250.95C236.347 249.669 239.635 247.88 242.61 245.64C241.559 247.32 240.383 248.918 239.09 250.42Z" fill="#FFA8A7"/>
<path id="Vector_57" d="M275.58 184.43C272.468 183.933 269.28 184.557 266.584 186.191C263.889 187.824 261.86 190.361 260.86 193.35C259.426 197.664 258.503 202.131 258.11 206.66C256.94 220.66 256.61 227.59 256.61 227.59L242.61 233.94C242.61 233.94 250.18 234.31 249.67 245L267.13 240.59L275.58 184.43Z" fill="#FFA8A7"/>
<path id="Vector_58" d="M256.61 227.59C258.183 228.072 259.607 228.946 260.75 230.13C260.75 230.13 259.06 226.92 256.69 225.93L256.61 227.59Z" fill="#F28F8F"/>
<path id="Vector_59" d="M297.69 190L307.53 194.19V223C304.449 230.384 302.78 238.281 302.61 246.28V260.55C302.61 260.55 282.5 267.72 266.91 259.97C259.36 256.21 254.69 247.65 254.69 247.65C254.69 247.65 263 242.76 263 236.79C262.838 232.122 262.283 227.475 261.34 222.9C259.517 221.093 258.135 218.89 257.302 216.462C256.47 214.033 256.209 211.446 256.54 208.9C257.65 199.38 275.54 184.42 275.54 184.42L282.21 185.33L297.69 190Z" fill="#BA68C8"/>
<path id="Vector_60" d="M297.69 189.97L282.25 185.34V166.66H297.69V189.97Z" fill="#FFA8A7"/>
<path id="Vector_61" d="M282.25 185.34C285.406 184.171 288.291 182.372 290.731 180.053C293.17 177.734 295.113 174.943 296.44 171.85V166.66H282.25V185.34Z" fill="#F28F8F"/>
<path id="Vector_62" d="M278.66 141.35C278.66 141.35 264.53 142.17 266.28 166.35C267.09 177.51 269.7 183.29 278.28 182.87C288.02 182.39 301.85 175.7 300.94 156.59C300.03 137.48 278.66 141.35 278.66 141.35Z" fill="#FFA8A7"/>
<path id="Vector_63" d="M297.69 166.66C297.69 166.66 293.82 167.66 293.82 162.13C293.82 162.13 276.62 160.97 272.82 143.9C272.82 143.9 274.52 138.79 285.26 138.79C296 138.79 305.02 148.28 302.26 161.34L297.69 166.66Z" fill="#263238"/>
<path id="Vector_64" d="M276.63 161.47V169.77L271.77 168.28L276.63 161.47Z" fill="#F28F8F"/>
<path id="Vector_65" d="M283.94 162.36C283.94 162.694 283.841 163.021 283.655 163.299C283.47 163.577 283.206 163.793 282.897 163.921C282.588 164.049 282.248 164.083 281.92 164.018C281.593 163.952 281.291 163.791 281.055 163.555C280.819 163.319 280.658 163.018 280.593 162.69C280.527 162.362 280.561 162.022 280.689 161.713C280.817 161.404 281.033 161.141 281.311 160.955C281.589 160.769 281.916 160.67 282.25 160.67C282.698 160.67 283.128 160.848 283.445 161.165C283.762 161.482 283.94 161.912 283.94 162.36Z" fill="#263238"/>
<path id="Vector_66" d="M272.82 161.18C272.82 161.514 272.721 161.841 272.535 162.119C272.35 162.397 272.086 162.613 271.777 162.741C271.468 162.869 271.128 162.903 270.8 162.838C270.473 162.772 270.171 162.611 269.935 162.375C269.699 162.139 269.538 161.838 269.473 161.51C269.407 161.182 269.441 160.842 269.569 160.533C269.697 160.224 269.913 159.96 270.191 159.775C270.469 159.589 270.796 159.49 271.13 159.49C271.578 159.49 272.008 159.668 272.325 159.985C272.642 160.302 272.82 160.732 272.82 161.18Z" fill="#263238"/>
<path id="Vector_67" d="M269.07 157.66L272.38 155.66C272.38 155.66 271.11 154.34 269.84 155.14C269.47 155.431 269.198 155.829 269.061 156.279C268.923 156.73 268.926 157.212 269.07 157.66Z" fill="#263238"/>
<path id="Vector_68" d="M277.05 172.52C278.978 172.661 280.897 172.151 282.5 171.07C282.5 171.07 282.87 173.93 280.5 174.48C278.13 175.03 277.05 172.52 277.05 172.52Z" fill="#F28F8F"/>
<path id="Vector_69" d="M296.32 167.29C296.267 165.883 296.53 164.482 297.09 163.19C297.357 162.385 297.855 161.678 298.522 161.155C299.189 160.632 299.995 160.317 300.84 160.25C305.18 160.13 305.77 164.31 305.71 165.79C305.55 169.7 302.39 173.91 296.51 174.07L296.32 167.29Z" fill="#FFA8A7"/>
<path id="Vector_70" d="M282.25 185.34L277.7 191.26C277.188 191.926 276.828 192.696 276.645 193.515C276.462 194.335 276.461 195.185 276.641 196.005C276.821 196.825 277.178 197.596 277.688 198.264C278.197 198.931 278.846 199.48 279.59 199.87C281.609 200.927 283.933 201.25 286.164 200.783C288.395 200.316 290.394 199.088 291.82 197.31L297.69 189.97L282.25 185.34Z" fill="#FFA8A7"/>
<path id="Vector_71" d="M282.17 256.53L269.26 263.53C267.283 263.383 265.297 263.383 263.32 263.53C261.04 263.81 254.98 264.91 253.42 264.98C251.86 265.05 253.35 267.98 257.42 267.72C257.42 267.72 248.16 271.96 247.83 274.5C247.5 277.04 255.26 282.82 261.72 279.58C263.414 278.599 265.234 277.855 267.13 277.37C268.89 277.11 274.13 276.06 277.76 272.28L288.58 268.83C288.58 268.83 293.44 257.64 282.17 256.53Z" fill="#FFA8A7"/>
<path id="Vector_72" d="M307.53 194.16C307.53 194.16 299.69 199.57 301 216.22C301.782 226.318 301.782 236.462 301 246.56L282.15 256.56C284.179 257.903 285.835 259.738 286.963 261.894C288.091 264.05 288.654 266.457 288.6 268.89C288.6 268.89 315.68 263.31 317.3 257C318.92 250.69 319.5 220.54 319.5 215.3C319.5 210.06 317.36 198.35 307.53 194.16Z" fill="#FFA8A7"/>
<path id="Vector_73" d="M301 246.56C303.071 246.514 305.13 246.892 307.05 247.67C305.328 246.309 303.287 245.411 301.12 245.06L301 246.56Z" fill="#F28F8F"/>
<path id="Vector_74" d="M184.15 227L190 265.49C189.996 265.499 189.993 265.51 189.993 265.52C189.993 265.53 189.996 265.541 190 265.55L248.48 299.47C248.495 299.477 248.511 299.481 248.527 299.479C248.543 299.478 248.559 299.473 248.572 299.464C248.585 299.454 248.596 299.442 248.602 299.427C248.609 299.412 248.612 299.396 248.61 299.38L243 262C242.878 261.203 242.584 260.442 242.139 259.771C241.693 259.099 241.107 258.532 240.42 258.11L186.78 225.22C186.495 225.038 186.164 224.944 185.826 224.949C185.489 224.953 185.16 225.057 184.88 225.246C184.601 225.435 184.383 225.702 184.253 226.014C184.123 226.325 184.087 226.668 184.15 227Z" fill="#FAFAFA"/>
<path id="Vector_75" d="M248.56 299.47L279.8 281.38C280.519 280.961 281.117 280.362 281.532 279.641C281.948 278.92 282.168 278.102 282.17 277.27L248.3 296.82L248.56 299.47Z" fill="#E0E0E0"/>
<path id="Vector_76" d="M218 264.09C218 266.84 216.06 267.96 213.68 266.58C212.425 265.761 211.381 264.658 210.632 263.36C209.883 262.063 209.451 260.606 209.37 259.11C209.37 256.35 211.3 255.24 213.68 256.62C214.936 257.438 215.982 258.541 216.733 259.839C217.483 261.136 217.918 262.593 218 264.09Z" fill="#E0E0E0"/>
<path id="Vector_77" opacity="0.2" d="M275.58 225C275.58 225 287.38 228.21 293.64 219.34C293.64 219.31 289.59 230.76 275.58 225Z" fill="black"/>
<path id="Vector_78" d="M201.38 223.67C201.115 223.67 200.86 223.565 200.673 223.377C200.485 223.19 200.38 222.935 200.38 222.67L200.5 210C200.5 209.735 200.605 209.48 200.793 209.293C200.98 209.105 201.235 209 201.5 209C201.765 209 202.02 209.105 202.207 209.293C202.395 209.48 202.5 209.735 202.5 210L202.38 222.71C202.37 222.968 202.26 223.212 202.073 223.391C201.887 223.57 201.638 223.67 201.38 223.67Z" fill="#FAFAFA"/>
<path id="Vector_79" d="M210.43 228.26C210.214 228.259 210.005 228.189 209.832 228.06C209.66 227.93 209.534 227.749 209.473 227.542C209.412 227.335 209.42 227.114 209.495 226.912C209.57 226.709 209.709 226.537 209.89 226.42L219.79 220.06C220.012 219.933 220.275 219.896 220.524 219.957C220.772 220.018 220.988 220.172 221.127 220.388C221.265 220.603 221.316 220.864 221.268 221.115C221.22 221.367 221.078 221.59 220.87 221.74L211 228.1C210.831 228.21 210.632 228.265 210.43 228.26Z" fill="#FAFAFA"/>
<path id="Vector_80" d="M206 225.73C205.818 225.73 205.64 225.681 205.484 225.588C205.328 225.494 205.201 225.36 205.116 225.2C205.03 225.039 204.99 224.859 205 224.677C205.009 224.496 205.068 224.32 205.17 224.17L211.48 214.61C211.553 214.5 211.647 214.406 211.756 214.333C211.865 214.259 211.988 214.208 212.117 214.182C212.246 214.156 212.379 214.156 212.508 214.181C212.637 214.207 212.76 214.257 212.87 214.33C212.98 214.403 213.074 214.497 213.147 214.606C213.221 214.715 213.272 214.838 213.298 214.967C213.324 215.096 213.324 215.229 213.299 215.358C213.274 215.487 213.223 215.61 213.15 215.72L206.84 225.28C206.749 225.419 206.624 225.533 206.477 225.611C206.33 225.69 206.166 225.731 206 225.73Z" fill="#FAFAFA"/>
</g>
<g id="freepik  Plant  inject 205">
<path id="Vector_81" d="M365.05 339.8C365.05 339.8 348.35 323.49 357.86 296.17C363.19 280.85 380.86 269.61 390.86 268.55C390.86 268.55 385.41 274.84 383.01 281.8L370.34 290.22L382 286.57L379.52 296.57C379.52 296.57 368.7 303.12 367.1 304.57L378.76 301.52C378.76 301.52 377.88 329.66 365.05 339.8Z" fill="#006C8D"/>
<path id="Vector_82" opacity="0.4" d="M365.05 339.8C365.05 339.8 348.35 323.49 357.86 296.17C363.19 280.85 380.86 269.61 390.86 268.55C390.86 268.55 385.41 274.84 383.01 281.8L370.34 290.22L382 286.57L379.52 296.57C379.52 296.57 368.7 303.12 367.1 304.57L378.76 301.52C378.76 301.52 377.88 329.66 365.05 339.8Z" fill="black"/>
<path id="Vector_83" d="M365.05 339.8C365.05 339.8 356.41 305.67 369.2 285.8C369.2 285.76 354.2 303.33 365.05 339.8Z" fill="white"/>
<path id="Vector_84" d="M384.17 344.42L363.73 344.17H363.52L343.09 344.42C343.09 344.42 342.86 369.6 350.62 379.85C352.76 382.57 357.78 384.48 363.62 384.48C369.46 384.48 374.51 382.56 376.62 379.83C384.4 369.58 384.17 344.42 384.17 344.42Z" fill="#263238"/>
<path id="Vector_85" d="M363.63 355.45C374.974 355.45 384.17 350.512 384.17 344.42C384.17 338.328 374.974 333.39 363.63 333.39C352.286 333.39 343.09 338.328 343.09 344.42C343.09 350.512 352.286 355.45 363.63 355.45Z" fill="#455A64"/>
<path id="Vector_86" d="M363.63 341.5C370.7 341.5 376.68 343.77 378.79 346.9C379.305 346.174 379.591 345.31 379.61 344.42C379.61 340.07 372.45 336.54 363.61 336.54C354.77 336.54 347.61 340.07 347.61 344.42C347.625 345.311 347.911 346.176 348.43 346.9C350.58 343.77 356.56 341.5 363.63 341.5Z" fill="#37474F"/>
<path id="Vector_87" d="M363.63 341.5C356.56 341.5 350.58 343.77 348.47 346.9C350.58 350.04 356.56 352.31 363.63 352.31C370.7 352.31 376.68 350.04 378.79 346.9C376.68 343.77 370.7 341.5 363.63 341.5Z" fill="#E0E0E0"/>
<path id="Vector_88" d="M363.88 348.27C363.88 348.27 356 348 349.17 337.45C346.37 333.11 345.02 330.83 345.02 330.83L356.02 330.01L343.67 326.92L337.86 318L348.12 317.24C348.12 317.24 340.48 314.56 335.02 314.52C335.02 314.52 325.55 297.81 322.79 295.42C329.946 295.864 336.94 297.737 343.36 300.929C349.78 304.12 355.496 308.564 360.17 314C375.73 332.38 366.19 348.74 363.88 348.27Z" fill="#2193B3"/>
<path id="Vector_89" d="M363.88 348.27C363.88 348.27 368.83 318.44 337.23 300.51C337.23 300.51 370 316.26 363.88 348.27Z" fill="white"/>
<path id="Vector_90" d="M363.88 348.27C363.88 348.27 371.05 348.73 378.17 339.89C381.1 336.24 382.54 334.31 382.54 334.31L372.66 332.53L384.1 330.91L390.21 323.4L381 321.75C381 321.75 388.15 320.05 393.08 320.53C393.08 320.53 403.19 306.34 405.91 304.45C399.413 304.175 392.927 305.205 386.835 307.479C380.742 309.753 375.168 313.225 370.44 317.69C354.69 332.82 361.75 348.47 363.88 348.27Z" fill="#00C9B7"/>
<path id="Vector_91" opacity="0.2" d="M363.88 348.27C363.88 348.27 371.05 348.73 378.17 339.89C381.1 336.24 382.54 334.31 382.54 334.31L372.66 332.53L384.1 330.91L390.21 323.4L381 321.75C381 321.75 388.15 320.05 393.08 320.53C393.08 320.53 403.19 306.34 405.91 304.45C399.413 304.175 392.927 305.205 386.835 307.479C380.742 309.753 375.168 313.225 370.44 317.69C354.69 332.82 361.75 348.47 363.88 348.27Z" fill="black"/>
<path id="Vector_92" d="M363.88 348.27C363.88 348.27 362.22 320.89 392.42 307.68C392.42 307.68 361.35 318.81 363.88 348.27Z" fill="white"/>
</g>
<g id="freepik  Moon  inject 205">
<path id="Vector_93" d="M240.28 60.3008C241.558 67.6884 240.415 75.291 237.023 81.9769C233.631 88.6627 228.17 94.0743 221.454 97.4059C226.828 98.0318 232.274 97.3949 237.359 95.5458C242.444 93.6966 247.027 90.6864 250.744 86.7544C254.461 82.8224 257.209 78.0773 258.769 72.8966C260.329 67.7158 260.659 62.2424 259.732 56.9118C258.805 51.5812 256.647 46.5405 253.429 42.1907C250.211 37.841 246.022 34.3022 241.196 31.856C236.37 29.4097 231.04 28.1235 225.629 28.0997C220.219 28.0759 214.877 29.315 210.03 31.7187C217.479 32.5874 224.448 35.8391 229.899 40.9895C235.349 46.1398 238.991 52.9132 240.28 60.3008Z" fill="#BA68C8"/>
</g>
<g id="freepik  Stars  inject 205">
<path id="Vector_94" d="M297.803 33.5732L299.123 35.8027C299.219 35.9761 299.353 36.1199 299.512 36.2211C299.671 36.3224 299.85 36.3778 300.033 36.3824L302.483 36.4604C302.693 36.4684 302.897 36.5415 303.071 36.6715C303.246 36.8015 303.385 36.9832 303.472 37.1962C303.559 37.4093 303.592 37.6453 303.565 37.8776C303.539 38.11 303.455 38.3295 303.323 38.5116L301.803 40.6854C301.692 40.8398 301.615 41.0211 301.578 41.2148C301.542 41.4085 301.547 41.609 301.593 41.8002L302.283 44.4199C302.343 44.6446 302.345 44.8834 302.29 45.1096C302.235 45.3358 302.124 45.5403 301.97 45.7001C301.816 45.86 301.626 45.9688 301.419 46.0144C301.213 46.06 301 46.0406 300.803 45.9583L298.523 44.9773C298.358 44.9119 298.182 44.8899 298.009 44.9131C297.835 44.9363 297.669 45.0041 297.523 45.1111L295.523 46.6494C295.348 46.7806 295.144 46.8548 294.934 46.8638C294.724 46.8728 294.516 46.8161 294.333 46.7003C294.15 46.5844 294 46.4139 293.899 46.208C293.798 46.002 293.751 45.7688 293.763 45.5347L293.903 42.8146C293.919 42.6026 293.887 42.3894 293.81 42.1947C293.733 41.9999 293.614 41.8297 293.463 41.6999L291.453 40.05C291.282 39.9074 291.151 39.7139 291.075 39.4917C290.998 39.2695 290.98 39.0278 291.022 38.7946C291.064 38.5613 291.164 38.3461 291.311 38.1737C291.458 38.0013 291.646 37.8788 291.853 37.8204L294.213 37.1293C294.39 37.0755 294.553 36.9757 294.688 36.8381C294.824 36.7005 294.928 36.5291 294.993 36.3378L295.813 33.7738C295.892 33.5624 296.021 33.3791 296.187 33.2437C296.353 33.1082 296.549 33.0258 296.753 33.0051C296.958 32.9845 297.164 33.0265 297.349 33.1266C297.534 33.2267 297.691 33.3811 297.803 33.5732Z" fill="#E0E0E0"/>
<path id="Vector_95" d="M445.803 148.573L447.123 150.803C447.219 150.976 447.353 151.12 447.512 151.221C447.671 151.322 447.85 151.378 448.033 151.382L450.483 151.46C450.693 151.468 450.897 151.542 451.071 151.671C451.246 151.801 451.385 151.983 451.472 152.196C451.559 152.409 451.592 152.645 451.565 152.878C451.539 153.11 451.455 153.33 451.323 153.512L449.803 155.685C449.692 155.84 449.615 156.021 449.578 156.215C449.542 156.408 449.547 156.609 449.593 156.8L450.283 159.42C450.343 159.645 450.345 159.883 450.29 160.11C450.235 160.336 450.124 160.54 449.97 160.7C449.816 160.86 449.626 160.969 449.419 161.014C449.213 161.06 449 161.041 448.803 160.958L446.523 159.977C446.358 159.912 446.182 159.89 446.009 159.913C445.835 159.936 445.669 160.004 445.523 160.111L443.523 161.649C443.348 161.781 443.144 161.855 442.934 161.864C442.724 161.873 442.516 161.816 442.333 161.7C442.15 161.584 442 161.414 441.899 161.208C441.798 161.002 441.751 160.769 441.763 160.535L441.903 157.815C441.919 157.603 441.887 157.389 441.81 157.195C441.733 157 441.614 156.83 441.463 156.7L439.453 155.05C439.282 154.907 439.151 154.714 439.075 154.492C438.998 154.27 438.98 154.028 439.022 153.795C439.064 153.561 439.164 153.346 439.311 153.174C439.458 153.001 439.646 152.879 439.853 152.82L442.213 152.129C442.39 152.075 442.553 151.976 442.688 151.838C442.824 151.701 442.928 151.529 442.993 151.338L443.813 148.774C443.892 148.562 444.021 148.379 444.187 148.244C444.353 148.108 444.549 148.026 444.753 148.005C444.958 147.984 445.164 148.026 445.349 148.127C445.534 148.227 445.691 148.381 445.803 148.573Z" fill="#E0E0E0"/>
<path id="Vector_96" d="M194.803 52.5732L196.123 54.8027C196.219 54.9761 196.353 55.1199 196.512 55.2211C196.671 55.3224 196.85 55.3778 197.033 55.3824L199.483 55.4604C199.693 55.4684 199.897 55.5415 200.071 55.6715C200.246 55.8015 200.385 55.9832 200.472 56.1962C200.559 56.4093 200.592 56.6453 200.565 56.8776C200.539 57.11 200.455 57.3295 200.323 57.5116L198.803 59.6854C198.692 59.8398 198.615 60.0211 198.578 60.2148C198.542 60.4085 198.547 60.609 198.593 60.8002L199.283 63.4199C199.343 63.6446 199.345 63.8834 199.29 64.1096C199.235 64.3358 199.124 64.5403 198.97 64.7001C198.816 64.86 198.626 64.9688 198.419 65.0144C198.213 65.06 198 65.0406 197.803 64.9583L195.523 63.9773C195.358 63.9119 195.182 63.8899 195.009 63.9131C194.835 63.9363 194.669 64.0041 194.523 64.1111L192.523 65.6494C192.348 65.7806 192.144 65.8548 191.934 65.8638C191.724 65.8728 191.516 65.8161 191.333 65.7003C191.15 65.5844 191 65.4139 190.899 65.208C190.798 65.002 190.751 64.7688 190.763 64.5347L190.903 61.8146C190.919 61.6026 190.887 61.3894 190.81 61.1947C190.733 60.9999 190.614 60.8297 190.463 60.6999L188.453 59.05C188.282 58.9074 188.151 58.7139 188.075 58.4917C187.998 58.2695 187.98 58.0278 188.022 57.7946C188.064 57.5613 188.164 57.3461 188.311 57.1737C188.458 57.0013 188.646 56.8788 188.853 56.8204L191.213 56.1293C191.39 56.0755 191.553 55.9757 191.688 55.8381C191.824 55.7005 191.928 55.5291 191.993 55.3378L192.813 52.7738C192.892 52.5624 193.021 52.3791 193.187 52.2437C193.353 52.1082 193.549 52.0258 193.753 52.0051C193.958 51.9845 194.164 52.0265 194.349 52.1266C194.534 52.2267 194.691 52.3811 194.803 52.5732Z" fill="#E0E0E0"/>
<path id="Vector_97" d="M349.58 130.422C349.58 130.889 349.456 131.346 349.223 131.735C348.99 132.123 348.659 132.426 348.272 132.605C347.884 132.784 347.458 132.831 347.047 132.74C346.635 132.648 346.258 132.423 345.961 132.093C345.665 131.762 345.463 131.341 345.381 130.883C345.299 130.424 345.341 129.949 345.502 129.517C345.662 129.085 345.934 128.716 346.282 128.457C346.631 128.197 347.041 128.058 347.46 128.058C348.022 128.058 348.562 128.307 348.959 128.751C349.357 129.194 349.58 129.795 349.58 130.422V130.422Z" fill="#E0E0E0"/>
<path id="Vector_98" d="M315.93 62.7886C315.93 63.256 315.806 63.7129 315.573 64.1016C315.34 64.4902 315.009 64.7931 314.621 64.972C314.234 65.1509 313.808 65.1977 313.397 65.1065C312.985 65.0153 312.608 64.7902 312.311 64.4597C312.015 64.1292 311.813 63.7081 311.731 63.2496C311.649 62.7912 311.691 62.316 311.852 61.8842C312.012 61.4523 312.284 61.0832 312.632 60.8236C312.981 60.5639 313.391 60.4253 313.81 60.4253C314.372 60.4253 314.912 60.6743 315.309 61.1175C315.707 61.5607 315.93 62.1618 315.93 62.7886V62.7886Z" fill="#E0E0E0"/>
<path id="Vector_99" d="M408.12 154.106C409.291 154.106 410.24 153.048 410.24 151.743C410.24 150.437 409.291 149.379 408.12 149.379C406.949 149.379 406 150.437 406 151.743C406 153.048 406.949 154.106 408.12 154.106Z" fill="#E0E0E0"/>
<path id="Vector_100" d="M381.06 165.12C381.645 165.12 382.12 164.591 382.12 163.938C382.12 163.286 381.645 162.757 381.06 162.757C380.475 162.757 380 163.286 380 163.938C380 164.591 380.475 165.12 381.06 165.12Z" fill="#E0E0E0"/>
<path id="Vector_101" d="M331.6 95.9196C332.186 95.9196 332.66 95.3905 332.66 94.7379C332.66 94.0853 332.186 93.5562 331.6 93.5562C331.015 93.5562 330.54 94.0853 330.54 94.7379C330.54 95.3905 331.015 95.9196 331.6 95.9196Z" fill="#E0E0E0"/>
<path id="Vector_102" d="M380.12 90.591C380.12 90.9044 380.008 91.205 379.81 91.4266C379.611 91.6482 379.341 91.7727 379.06 91.7727C378.779 91.7727 378.509 91.6482 378.31 91.4266C378.112 91.205 378 90.9044 378 90.591C378 90.2777 378.112 89.9771 378.31 89.7555C378.509 89.5339 378.779 89.4094 379.06 89.4094C379.341 89.4094 379.611 89.5339 379.81 89.7555C380.008 89.9771 380.12 90.2777 380.12 90.591V90.591Z" fill="#E0E0E0"/>
<path id="Vector_103" d="M289.74 95.9196C290.326 95.9196 290.8 95.3905 290.8 94.7379C290.8 94.0853 290.326 93.5562 289.74 93.5562C289.155 93.5562 288.68 94.0853 288.68 94.7379C288.68 95.3905 289.155 95.9196 289.74 95.9196Z" fill="#E0E0E0"/>
<path id="Vector_104" d="M368.166 32.4549C368.199 31.9889 368.355 31.5443 368.614 31.1771C368.874 30.81 369.225 30.5369 369.624 30.3924C370.023 30.2479 370.451 30.2385 370.855 30.3653C371.258 30.4921 371.619 30.7495 371.891 31.1048C372.164 31.4602 372.335 31.8977 372.385 32.3618C372.434 32.826 372.359 33.2961 372.169 33.7126C371.978 34.1291 371.682 34.4733 371.316 34.7018C370.95 34.9302 370.532 35.0326 370.114 34.996C369.553 34.9469 369.033 34.6516 368.668 34.1751C368.302 33.6985 368.122 33.0798 368.166 32.4549V32.4549Z" fill="#E0E0E0"/>
<path id="Vector_105" d="M431.856 102.913C431.889 102.447 432.045 102.002 432.305 101.635C432.564 101.268 432.915 100.995 433.314 100.851C433.713 100.706 434.141 100.697 434.545 100.824C434.948 100.95 435.309 101.208 435.581 101.563C435.854 101.918 436.026 102.356 436.075 102.82C436.124 103.284 436.049 103.754 435.859 104.171C435.668 104.587 435.372 104.932 435.006 105.16C434.64 105.388 434.222 105.491 433.804 105.454C433.243 105.405 432.723 105.11 432.358 104.633C431.993 104.157 431.812 103.538 431.856 102.913V102.913Z" fill="#E0E0E0"/>
<path id="Vector_106" d="M308.446 1.29983C307.278 1.19762 306.258 2.1696 306.166 3.47082C306.074 4.77203 306.946 5.90975 308.114 6.01196C309.281 6.11417 310.301 5.14217 310.393 3.84095C310.485 2.53974 309.613 1.40204 308.446 1.29983Z" fill="#E0E0E0"/>
<path id="Vector_107" d="M461.083 133.836C461.105 133.523 461.237 133.234 461.451 133.03C461.665 132.826 461.943 132.726 462.223 132.75C462.503 132.775 462.763 132.923 462.946 133.161C463.128 133.399 463.219 133.709 463.197 134.021C463.175 134.333 463.042 134.623 462.828 134.827C462.615 135.03 462.337 135.131 462.057 135.106C461.777 135.082 461.516 134.934 461.334 134.696C461.151 134.458 461.061 134.148 461.083 133.836Z" fill="#E0E0E0"/>
<path id="Vector_108" d="M263.223 13.4698C262.639 13.4187 262.129 13.9047 262.083 14.5553C262.037 15.2059 262.473 15.7748 263.057 15.8259C263.64 15.877 264.151 15.391 264.197 14.7404C264.242 14.0898 263.806 13.5209 263.223 13.4698Z" fill="#E0E0E0"/>
<path id="Vector_109" d="M330.223 0.0925212C329.639 0.0414168 329.129 0.527408 329.083 1.17802C329.037 1.82862 329.473 2.39747 330.057 2.44857C330.64 2.49968 331.151 2.01369 331.197 1.36308C331.242 0.712473 330.806 0.143626 330.223 0.0925212Z" fill="#E0E0E0"/>
<path id="Vector_110" d="M324.223 35.7652C323.639 35.7141 323.129 36.2001 323.083 36.8507C323.037 37.5013 323.473 38.0702 324.057 38.1213C324.64 38.1724 325.151 37.6864 325.197 37.0358C325.242 36.3852 324.806 35.8163 324.223 35.7652Z" fill="#E0E0E0"/>
<path id="Vector_111" d="M404.016 76.2963C403.432 76.2452 402.922 76.7312 402.876 77.3818C402.83 78.0324 403.266 78.6013 403.85 78.6524C404.433 78.7035 404.944 78.2175 404.989 77.5669C405.035 76.9163 404.599 76.3474 404.016 76.2963Z" fill="#E0E0E0"/>
<path id="Vector_112" d="M368.911 60.0276C368.933 59.7152 369.065 59.4253 369.279 59.2217C369.493 59.0181 369.77 58.9176 370.05 58.9421C370.331 58.9666 370.591 59.1143 370.773 59.3526C370.956 59.5908 371.046 59.9002 371.024 60.2127C371.002 60.5251 370.87 60.815 370.656 61.0185C370.442 61.2221 370.165 61.3227 369.884 61.2982C369.604 61.2736 369.344 61.126 369.161 60.8877C368.979 60.6494 368.889 60.34 368.911 60.0276V60.0276Z" fill="#E0E0E0"/>
<path id="Vector_113" d="M437.913 57.1735C437.329 57.1224 436.819 57.6084 436.773 58.259C436.727 58.9096 437.163 59.4785 437.747 59.5296C438.331 59.5807 438.841 59.0947 438.887 58.4441C438.933 57.7935 438.497 57.2246 437.913 57.1735Z" fill="#E0E0E0"/>
</g>
<path id="Vector_114" d="M250.05 250.84C250.635 250.84 251.11 250.365 251.11 249.78C251.11 249.195 250.635 248.72 250.05 248.72C249.465 248.72 248.99 249.195 248.99 249.78C248.99 250.365 249.465 250.84 250.05 250.84Z" fill="#E0E0E0"/>
</g>
</svg>
