<svg width="30" height="30" viewBox="0 0 200 200" fill="none" xmlns="http://www.w3.org/2000/svg">
<g id="Group">
<path id="Vector" d="M100.001 0C44.7724 0 0 44.9595 0 100.419C0 150.159 36.0522 191.352 83.3225 199.329V121.369H59.1994V93.3139H83.3225V72.6274C83.3225 48.6251 97.9213 35.5453 119.247 35.5453C129.461 35.5453 138.238 36.3095 140.786 36.6461V61.7349L125.995 61.7421C114.4 61.7421 112.165 67.274 112.165 75.3946V93.2996H139.832L136.223 121.354H112.165V200C161.642 193.953 200 151.71 200 100.39C200 44.9595 155.228 0 100.001 0Z" fill="white"/>
</g>
</svg>
